<?xml version="1.0" encoding="UTF-8"?>
<svg version="1.1" xmlns="http://www.w3.org/2000/svg" width="128" height="128">
<path d="M0 0 C1.32 0.66 2.64 1.32 4 2 C4 3.32 4 4.64 4 6 C5.98 6 7.96 6 10 6 C10.5625 7.9375 10.5625 7.9375 11 10 C10 11 10 11 6.9375 11.0625 C5.968125 11.041875 4.99875 11.02125 4 11 C4.03161858 14.32075016 4.03161858 14.32075016 5 18 C6.4706168 19.21485736 7.94754362 20.42679196 9.5 21.53515625 C12.34794355 24.31635112 13.06335471 28.22877029 14 32 C15.051875 31.505 16.10375 31.01 17.1875 30.5 C24.10014396 27.93384976 32.52922064 27.5033067 39.375 30.5 C44.05675201 33.28320714 48.93589965 37.78309547 50.67578125 43.04296875 C51.65265842 48.93954058 51.10536971 53.86843162 48 59 C45.41103967 62.52043812 42.77591809 65.91236474 39.01318359 68.21679688 C34.62253156 70.93845104 34.62253156 70.93845104 32.26098633 75.35473633 C31.99037748 78.05702768 31.94190945 80.66023476 32 83.375 C31.98839844 84.30183594 31.97679688 85.22867188 31.96484375 86.18359375 C31.94139631 88.45799528 31.95407588 90.72611799 32 93 C30.19451263 93.97148051 28.38014699 94.92646511 26.5625 95.875 C25.55316406 96.40867187 24.54382813 96.94234375 23.50390625 97.4921875 C15.69338964 100.85323478 8.12033361 101.36062783 -0.3125 101.3125 C-1.32779785 101.30758545 -2.3430957 101.3026709 -3.38916016 101.29760742 C-15.26370435 101.11191888 -22.4728425 98.84842084 -33 93 C-33 85.74 -33 78.48 -33 71 C-34.65 70.34 -36.3 69.68 -38 69 C-43.6558844 64.64931969 -48.25200763 58.92144979 -49.34375 51.73828125 C-49.66341011 43.89328929 -46.62261628 38.36361561 -41.6953125 32.48046875 C-36.91114932 28.30259353 -31.3434812 28.59261828 -25.30859375 28.66796875 C-20.64331167 29.13614936 -17.03627275 30.7001558 -13 33 C-12.01 33.495 -12.01 33.495 -11 34 C-11.0825 32.96875 -11.165 31.9375 -11.25 30.875 C-10.95619764 26.32106336 -9.86013104 24.49571572 -7 21 C-6.278125 20.525625 -5.55625 20.05125 -4.8125 19.5625 C-2.02750549 17.16164266 -2.26613881 14.52633929 -2 11 C-3.98 11 -5.96 11 -8 11 C-8.5625 9.0625 -8.5625 9.0625 -9 7 C-8 6 -8 6 -4.9375 5.9375 C-3.4834375 5.9684375 -3.4834375 5.9684375 -2 6 C-1.855625 5.195625 -1.71125 4.39125 -1.5625 3.5625 C-1 1 -1 1 0 0 Z " fill="#0E0E0E" transform="translate(63,14)"/>
<path d="M0 0 C6.06656545 3.45523544 12.20168411 8.11616534 14.9765625 14.6953125 C15.6365625 14.6953125 16.2965625 14.6953125 16.9765625 14.6953125 C17.2240625 14.1384375 17.4715625 13.5815625 17.7265625 13.0078125 C20.38880118 8.08267095 23.62447338 4.95396748 28.3515625 2.0078125 C29.26679687 1.42644531 30.18203125 0.84507813 31.125 0.24609375 C37.48350417 -3.21188728 43.50351768 -4.50660489 50.53515625 -2.6171875 C56.26640397 -0.57335473 60.06433643 1.25915717 62.9765625 6.6953125 C64.10356184 12.81954923 63.83416208 18.13256626 60.5390625 23.5078125 C57.53844201 27.45373586 53.96713381 30.34480821 49.9296875 33.1875 C47.72900577 34.72035952 47.72900577 34.72035952 45.9765625 37.6953125 C41.58740971 37.06544918 37.57535251 35.9628773 33.3515625 34.6328125 C19.6861532 30.76442923 5.86400985 31.78967804 -7.640625 35.72265625 C-10.76812228 36.621902 -13.80658472 37.22803266 -17.0234375 37.6953125 C-17.10078125 37.09976563 -17.178125 36.50421875 -17.2578125 35.890625 C-18.279073 32.96231683 -19.70652668 32.26175374 -22.2734375 30.5703125 C-28.42960524 25.99491511 -31.35201124 20.5895848 -32.6484375 13.0703125 C-31.5747279 7.27228064 -28.67714788 3.23090071 -24.3984375 -0.7421875 C-16.69059038 -5.81313955 -7.86834041 -3.55803507 0 0 Z " fill="#EFEFEF" transform="translate(48.0234375,49.3046875)"/>
<path d="M0 0 C1.32 0.66 2.64 1.32 4 2 C4 3.32 4 4.64 4 6 C5.98 6 7.96 6 10 6 C10.5625 7.9375 10.5625 7.9375 11 10 C10 11 10 11 6.9375 11.0625 C5.968125 11.041875 4.99875 11.02125 4 11 C4.03161858 14.32075016 4.03161858 14.32075016 5 18 C6.4706168 19.21485736 7.94754362 20.42679196 9.5 21.53515625 C12.34794355 24.31635112 13.06335471 28.22877029 14 32 C15.051875 31.505 16.10375 31.01 17.1875 30.5 C24.10014396 27.93384976 32.52922064 27.5033067 39.375 30.5 C44.05675201 33.28320714 48.93589965 37.78309547 50.67578125 43.04296875 C51.64990189 48.92290174 51.12648326 53.89086881 48 59 C44.93229173 62.92347559 41.54024741 66.50292634 38 70 C37.34 69.67 36.68 69.34 36 69 C36.93972656 67.87851563 36.93972656 67.87851563 37.8984375 66.734375 C38.71570313 65.74953125 39.53296875 64.7646875 40.375 63.75 C41.18710938 62.77546875 41.99921875 61.8009375 42.8359375 60.796875 C47.55127223 54.70268788 47.79334305 49.60983009 47 42 C45.06428002 37.77661095 42.34496466 36.52078418 38.25 34.6875 C30.51958086 31.91856332 25.04824139 32.38844019 17.52734375 35.66796875 C10.77816389 39.22510991 5.94546456 43.52943813 2 50 C1.34 50 0.68 50 0 50 C-1.06860995 48.83370548 -2.0802998 47.61494068 -3.0625 46.375 C-9.09241108 39.30674323 -17.12149497 33.87879954 -26.4765625 32.68359375 C-32.20187823 32.41548984 -36.66550759 33.07255383 -41 37 C-44.04023512 40.55722941 -45.77069288 43.76174153 -46.625 48.375 C-45.09530172 57.24725002 -41.06173996 62.67406992 -33.79296875 67.8203125 C-33.20128906 68.20960937 -32.60960938 68.59890625 -32 69 C-32.33 70.32 -32.66 71.64 -33 73 C-33 72.34 -33 71.68 -33 71 C-33.680625 70.814375 -34.36125 70.62875 -35.0625 70.4375 C-41.14621442 67.46036315 -45.58438675 62.25456702 -48.34375 56.10546875 C-49.95314639 50.94198865 -49.45821787 46.47647979 -47.875 41.375 C-44.65337207 35.57606972 -41.54106486 31.00023867 -35 29 C-26.77500488 28.08374407 -20.19184062 28.90213201 -13 33 C-12.01 33.495 -12.01 33.495 -11 34 C-11.0825 32.96875 -11.165 31.9375 -11.25 30.875 C-10.95619764 26.32106336 -9.86013104 24.49571572 -7 21 C-6.278125 20.525625 -5.55625 20.05125 -4.8125 19.5625 C-2.02750549 17.16164266 -2.26613881 14.52633929 -2 11 C-3.98 11 -5.96 11 -8 11 C-8.5625 9.0625 -8.5625 9.0625 -9 7 C-8 6 -8 6 -4.9375 5.9375 C-3.4834375 5.9684375 -3.4834375 5.9684375 -2 6 C-1.855625 5.195625 -1.71125 4.39125 -1.5625 3.5625 C-1 1 -1 1 0 0 Z " fill="#080808" transform="translate(63,14)"/>
<path d="M0 0 C3.09004126 1.69789636 4.76676966 3.26148261 6.73046875 6.20703125 C7.33205744 12.22291815 6.60969344 16.37501453 2.73046875 21.20703125 C0.53711723 23.42117283 -1.79364569 25.32037246 -4.26953125 27.20703125 C-5.38328125 28.22796875 -5.38328125 28.22796875 -6.51953125 29.26953125 C-10.47907282 30.61937497 -13.15575716 29.35272194 -17.06640625 28.11328125 C-22.68943288 26.52237616 -28.480793 25.92534184 -34.26953125 25.20703125 C-35.14461403 18.45639263 -33.49074175 14.93398617 -29.41015625 9.54296875 C-26.14698541 5.98206334 -22.48723086 3.51468206 -18.26953125 1.20703125 C-17.64046875 0.83320312 -17.01140625 0.459375 -16.36328125 0.07421875 C-11.46103353 -1.95618982 -4.96848059 -1.73597515 0 0 Z " fill="#030303" transform="translate(100.26953125,51.79296875)"/>
<path d="M0 0 C8.45560995 3.02371748 14.4478023 8.53110612 19.9375 15.4375 C21.43616394 19.05192481 21.06754863 22.09409982 21 26 C19.88882813 26.12117188 18.77765625 26.24234375 17.6328125 26.3671875 C16.13020579 26.53643576 14.62760181 26.70570822 13.125 26.875 C12.34503662 26.9587085 11.56507324 27.04241699 10.76147461 27.12866211 C6.52799806 27.60735134 2.65065979 28.32227175 -1.4375 29.5625 C-4.53977122 30.24128755 -5.73606885 30.11679049 -8.68359375 28.8125 C-14.01435567 25.34634421 -17.73720462 21.96555147 -20 16 C-20.70546602 12.08911558 -20.943535 8.66772422 -18.94140625 5.12890625 C-13.73345125 -1.31535855 -7.80868705 -0.89933937 0 0 Z " fill="#020202" transform="translate(41,51)"/>
<path d="M0 0 C0.99 0.495 0.99 0.495 2 1 C-1.75 5.875 -1.75 5.875 -4 7 C-4.46651207 9.12576782 -4.46651207 9.12576782 -4.625 11.5625 C-4.69976562 12.38878906 -4.77453125 13.21507813 -4.8515625 14.06640625 C-4.92503906 15.02353516 -4.92503906 15.02353516 -5 16 C-9.08594406 17.36198135 -11.14319002 16.6106508 -14.953125 14.8359375 C-29.05437205 9.07703126 -48.72715225 10.56757544 -62.51953125 16.16015625 C-65 17 -65 17 -69 17 C-70.1577506 13.52674819 -70.06866652 10.63932552 -70 7 C-67.1047827 6.18525038 -64.20887172 5.37312678 -61.3125 4.5625 C-60.49587891 4.33240234 -59.67925781 4.10230469 -58.83789062 3.86523438 C-44.20971922 -0.22117788 -29.73567703 -0.56123464 -15.1640625 4.02734375 C-12.06659121 4.97952937 -9.23259487 5.73938061 -6 6 C-3.14515489 3.72889272 -3.14515489 3.72889272 -1 1 C-0.67 0.67 -0.34 0.34 0 0 Z " fill="#0E0E0E" transform="translate(100,80)"/>
<path d="M0 0 C-2.98999625 2.46234985 -5.79139023 3.8405175 -9.4375 5.125 C-10.36433594 5.45757812 -11.29117188 5.79015625 -12.24609375 6.1328125 C-26.97444814 10.77067729 -45.94297723 9.51331761 -59.75 2.8125 C-60.8225 2.214375 -61.895 1.61625 -63 1 C-43.35697706 -9.21070889 -20.17899524 -8.1828209 0 0 Z " fill="#030303" transform="translate(94,107)"/>
<path d="M0 0 C4.10085314 0.8543444 5.51240343 2.28451318 8 5.625 C9.40455905 10.00391938 9.22222759 12.73538317 7.3125 16.8125 C5.59566659 19.89322894 3.69711811 22.31318448 1 24.625 C-3.65207298 22.7973999 -5.94575718 19.53267748 -8.3125 15.25 C-9.26008018 11.6319666 -8.96676542 9.23425757 -8 5.625 C-5.51240343 2.28451318 -4.10085314 0.8543444 0 0 Z " fill="#ECECEC" transform="translate(64,34.375)"/>
<path d="M0 0 C0 0.99 0 1.98 0 3 C-5.03210486 2.45303208 -9.56690646 1.30035972 -14.375 -0.28125 C-20.1565488 -1.86429312 -25.91022428 -2.16808253 -31.875 -2.125 C-32.57971436 -2.12016602 -33.28442871 -2.11533203 -34.01049805 -2.11035156 C-42.70340662 -2.01016822 -49.34021022 -1.15994288 -57.421875 2.16015625 C-60.10553654 3.03437933 -62.19782076 3.15623661 -65 3 C-65 2.01 -65 1.02 -65 0 C-46.91289312 -10.70461428 -18.1216213 -10.51054036 0 0 Z " fill="#F1F1F1" transform="translate(95,104)"/>
<path d="M0 0 C0 1.32 0 2.64 0 4 C-4.66559646 3.38610573 -8.972552 2.14982308 -13.4375 0.71875 C-19.05968466 -0.85820423 -24.49931815 -1.16374594 -30.3125 -1.125 C-31.06869629 -1.12016602 -31.82489258 -1.11533203 -32.60400391 -1.11035156 C-41.37099516 -1.01594072 -48.3131161 -0.16740891 -56.51953125 3.16015625 C-59 4 -59 4 -63 4 C-62.73828125 2.1328125 -62.73828125 2.1328125 -62 0 C-45.76010925 -11.80381608 -17.03967508 -6.78950303 0 0 Z " fill="#F2F2F2" transform="translate(94,93)"/>
<path d="M0 0 C2.4375 0.375 2.4375 0.375 5 1 C6.41000664 3.82001327 6.24548451 5.87007255 6 9 C4.5 11.875 4.5 11.875 3 14 C0 13 0 13 -1.1875 11.3125 C-2.21683212 8.38286241 -2.26266639 6.0863301 -2 3 C-1.34 2.01 -0.68 1.02 0 0 Z " fill="#090909" transform="translate(62,39)"/>
<path d="M0 0 C0.8125 1.6875 0.8125 1.6875 1 4 C-1.4375 6.75 -1.4375 6.75 -4 9 C-4 5.00095031 -2.27413033 3.19799578 0 0 Z " fill="#111111" transform="translate(112,66)"/>
</svg>
