<?xml version="1.0" encoding="UTF-8"?>
<svg version="1.1" xmlns="http://www.w3.org/2000/svg" width="128" height="128">
<path d="M0 0 C2.74483673 1.24765306 4.47294058 2.35315435 6.375 4.6875 C7.47379678 8.75304808 6.88735119 13.22529763 5 17 C5.56847656 17.3403125 6.13695312 17.680625 6.72265625 18.03125 C14.69373448 23.03479827 21.13551845 28.7700039 24 38 C25.46881302 44.88506105 25.20764611 50.64937807 22 57 C19.8125 59.5625 19.8125 59.5625 18 61 C18.28875 61.61875 18.5775 62.2375 18.875 62.875 C20.74645278 68.07347995 22.44058979 73.41153501 21.5 78.9375 C19.46138438 81.74059647 17.16029076 82.69466251 14 84 C18.5384243 85.5128081 23.28878746 85.28268999 28.04492188 85.34179688 C35.02195644 85.5920158 40.07457188 87.71673903 45.5625 92 C47 94 47 94 46.9375 96.125 C46 98 46 98 43 100 C37.13258678 100.32004072 37.13258678 100.32004072 34.2668457 99.51025391 C30.92710705 98.75849798 27.57655949 98.74083582 24.16796875 98.6484375 C23.39115753 98.62483154 22.61434631 98.60122559 21.81399536 98.5769043 C19.27196125 98.50308065 16.72982498 98.43797167 14.1875 98.375 C13.32273041 98.35254211 12.45796082 98.33008423 11.56698608 98.3069458 C-0.5304396 98.00376618 -12.59276503 97.96498405 -24.6875 98.375 C-25.97954346 98.41802246 -27.27158691 98.46104492 -28.6027832 98.50537109 C-35.37423886 98.74576777 -35.37423886 98.74576777 -42 100 C-48.31303473 100.56366381 -48.31303473 100.56366381 -51.4375 98 C-51.953125 97.34 -52.46875 96.68 -53 96 C-52.00261116 92.40940017 -51.11279244 91.08827235 -48.125 88.75 C-44.24981771 86.57989792 -41.17255619 85.90521055 -36.77734375 85.71875 C-35.99166016 85.68136719 -35.20597656 85.64398438 -34.39648438 85.60546875 C-32.75326237 85.53498901 -31.11003316 85.4646773 -29.46679688 85.39453125 C-28.68240234 85.35714844 -27.89800781 85.31976563 -27.08984375 85.28125 C-26.37691162 85.25095703 -25.66397949 85.22066406 -24.92944336 85.18945312 C-22.78201514 85.05067635 -22.78201514 85.05067635 -20 84 C-21.134375 83.46375 -22.26875 82.9275 -23.4375 82.375 C-26.12576428 80.80457381 -26.86098902 80.32435896 -28.125 77.375 C-27.97744844 73.39110786 -26.99405512 70.11741428 -25.69140625 66.3671875 C-24.81309005 63.77108666 -24.81309005 63.77108666 -25 60 C-25.61875 59.236875 -26.2375 58.47375 -26.875 57.6875 C-30.43499837 53.18514911 -31.23757934 48.81840063 -30.9375 43.1875 C-29.73374604 34.08324589 -25.13130742 26.68393847 -18 21 C-15.7120004 19.49696713 -13.44452035 18.24720426 -11 17 C-11.350625 16.319375 -11.70125 15.63875 -12.0625 14.9375 C-13.26464175 11.17078919 -12.97146473 8.81646859 -12 5 C-8.3550308 0.53197324 -5.72027195 -0.44864878 0 0 Z " fill="#020202" transform="translate(67,13)"/>
<path d="M0 0 C0.85049423 0.00222061 1.70098846 0.00444122 2.57725525 0.00672913 C4.01863609 0.00684242 4.01863609 0.00684242 5.48913574 0.00695801 C7.05630592 0.01469994 7.05630592 0.01469994 8.65513611 0.02259827 C9.71913132 0.02401321 10.78312653 0.02542816 11.87936401 0.02688599 C15.29293069 0.03250388 18.70643286 0.04505941 22.11997986 0.05775452 C24.42792162 0.06276721 26.73586441 0.06733052 29.04380798 0.07142639 C34.71505412 0.08247912 40.38626238 0.09923465 46.05747986 0.12025452 C47.05747986 3.12025452 47.05747986 3.12025452 46.49497986 5.62025452 C44.60564641 8.90605182 42.49800392 9.69916849 39.05747986 11.12025452 C43.59590416 12.63306262 48.34626732 12.4029445 53.10240173 12.46205139 C60.0794363 12.71227031 65.13205174 14.83699355 70.61997986 19.12025452 C72.05747986 21.12025452 72.05747986 21.12025452 71.99497986 23.24525452 C71.05747986 25.12025452 71.05747986 25.12025452 68.05747986 27.12025452 C62.19006664 27.44029524 62.19006664 27.44029524 59.32432556 26.63050842 C55.98458691 25.8787525 52.63403935 25.86109033 49.22544861 25.76869202 C48.44863739 25.74508606 47.67182617 25.7214801 46.87147522 25.69715881 C44.32944111 25.62333517 41.78730483 25.55822618 39.24497986 25.49525452 C38.38021027 25.47279663 37.51544067 25.45033875 36.62446594 25.42720032 C24.52704026 25.1240207 12.46471483 25.08523857 0.36997986 25.49525452 C-0.9220636 25.53827698 -2.21410706 25.58129944 -3.54530334 25.62562561 C-10.316759 25.86602229 -10.316759 25.86602229 -16.94252014 27.12025452 C-23.25555487 27.68391833 -23.25555487 27.68391833 -26.38002014 25.12025452 C-26.89564514 24.46025452 -27.41127014 23.80025452 -27.94252014 23.12025452 C-26.9451313 19.52965468 -26.05531258 18.20852686 -23.06752014 15.87025452 C-19.19233786 13.70015244 -16.11507633 13.02546507 -11.71986389 12.83900452 C-10.9341803 12.8016217 -10.1484967 12.76423889 -9.33900452 12.72572327 C-7.69578251 12.65524353 -6.0525533 12.58493182 -4.40931702 12.51478577 C-3.62492249 12.47740295 -2.84052795 12.44002014 -2.03236389 12.40150452 C-0.9629657 12.35606506 -0.9629657 12.35606506 0.1280365 12.30970764 C2.27546472 12.17093087 2.27546472 12.17093087 5.05747986 11.12025452 C3.92310486 10.58400452 2.78872986 10.04775452 1.61997986 9.49525452 C-1.44240911 7.76918074 -1.83109273 7.47542939 -2.94252014 3.93275452 C-2.94252014 0.18216096 -2.94252014 0.18216096 0 0 Z " fill="#030303" transform="translate(41.94252014160156,85.87974548339844)"/>
<path d="M0 0 C15.18 0 30.36 0 46 0 C46 1.32 46 2.64 46 4 C30.82 4 15.64 4 0 4 C0 2.68 0 1.36 0 0 Z " fill="#F0F0F0" transform="translate(41,83)"/>
<path d="M0 0 C1.32 0 2.64 0 4 0 C4 2.31 4 4.62 4 7 C6.31 7 8.62 7 11 7 C10.67 8.32 10.34 9.64 10 11 C8.02 11 6.04 11 4 11 C4 14.96 4 18.92 4 23 C2.68 23 1.36 23 0 23 C0 19.04 0 15.08 0 11 C-1.98 11 -3.96 11 -6 11 C-6.33 9.68 -6.66 8.36 -7 7 C-4.69 7 -2.38 7 0 7 C0 4.69 0 2.38 0 0 Z " fill="#F9F9F9" transform="translate(62,41)"/>
<path d="M0 0 C10.56 0 21.12 0 32 0 C32 1.32 32 2.64 32 4 C21.44 4 10.88 4 0 4 C0 2.68 0 1.36 0 0 Z " fill="#FCFCFC" transform="translate(48,72)"/>
</svg>
