<?xml version="1.0" encoding="UTF-8"?>
<svg version="1.1" xmlns="http://www.w3.org/2000/svg" width="128" height="128">
<path d="M0 0 C5.28 0 10.56 0 16 0 C16 1.98 16 3.96 16 6 C18.97 6 21.94 6 25 6 C24.979375 5.195625 24.95875 4.39125 24.9375 3.5625 C25 1 25 1 26 0 C27.33043625 -0.0983721 28.66593344 -0.13078592 30 -0.1328125 C30.804375 -0.13410156 31.60875 -0.13539062 32.4375 -0.13671875 C33.283125 -0.13285156 34.12875 -0.12898438 35 -0.125 C36.2684375 -0.13080078 36.2684375 -0.13080078 37.5625 -0.13671875 C38.366875 -0.13542969 39.17125 -0.13414063 40 -0.1328125 C40.7425 -0.13168457 41.485 -0.13055664 42.25 -0.12939453 C44 0 44 0 45 1 C45.04063832 2.66617115 45.042721 4.33388095 45 6 C47.97 6 50.94 6 54 6 C54 4.02 54 2.04 54 0 C59.28 0 64.56 0 70 0 C70.19031041 3.02382091 70.32819964 6.03554927 70.4375 9.0625 C70.52547852 10.33383789 70.52547852 10.33383789 70.61523438 11.63085938 C70.6861228 14.25373116 70.64005014 16.4506708 70 19 C68.43481445 20.56347656 68.43481445 20.56347656 66.515625 22.01953125 C63.57300882 24.57159084 63.03196377 25.81334769 62.35961914 29.73950195 C62.1239781 33.56426226 62.15185671 37.37769192 62.25219727 41.20703125 C62.31253799 43.62652332 62.31375868 46.04079813 62.30664062 48.4609375 C62.3220447 50.00785102 62.34080966 51.5547355 62.36328125 53.1015625 C62.36525261 54.1782872 62.36525261 54.1782872 62.36726379 55.27676392 C62.52806951 60.16588231 63.75882734 62.42789201 67 66 C67.390625 68.89453125 67.390625 68.89453125 67.25 71.8125 C67.21390625 72.78832031 67.1778125 73.76414062 67.140625 74.76953125 C67.09421875 75.50558594 67.0478125 76.24164063 67 77 C68.299375 76.979375 69.59875 76.95875 70.9375 76.9375 C72.29165633 76.91600546 73.64756083 76.92851801 75 77 C76 78 76 78 76.09765625 80.72265625 C76.08605469 81.82480469 76.07445313 82.92695312 76.0625 84.0625 C76.05347656 85.16722656 76.04445313 86.27195312 76.03515625 87.41015625 C76.02355469 88.26480469 76.01195313 89.11945313 76 90 C73.00368721 91.49815639 69.92997309 91.13864385 66.64453125 91.12939453 C65.88667328 91.13114685 65.12881531 91.13289917 64.34799194 91.13470459 C61.83613819 91.13911553 59.32435451 91.13618777 56.8125 91.1328125 C55.0713703 91.13348576 53.3302407 91.13445597 51.58911133 91.13571167 C47.93732815 91.13718761 44.28556941 91.13503739 40.63378906 91.13037109 C35.94598953 91.12467387 31.25824726 91.12795342 26.57044983 91.13394356 C22.97432013 91.13755195 19.37820408 91.1364093 15.78207397 91.13381577 C14.05325311 91.13314727 12.32443101 91.13397224 10.59561157 91.13629532 C8.18219712 91.13882638 5.76887621 91.13497481 3.35546875 91.12939453 C2.2769313 91.13243088 2.2769313 91.13243088 1.17660522 91.13552856 C-3.77147104 91.11426448 -3.77147104 91.11426448 -6 90 C-6.02686553 88.02090602 -6.04633375 86.04171029 -6.0625 84.0625 C-6.07410156 82.96035156 -6.08570312 81.85820313 -6.09765625 80.72265625 C-6 78 -6 78 -5 77 C-2.32941149 76.85884839 0.32432238 76.95752893 3 77 C2.95359375 76.26394531 2.9071875 75.52789062 2.859375 74.76953125 C2.82328125 73.79371094 2.7871875 72.81789063 2.75 71.8125 C2.70359375 70.84957031 2.6571875 69.88664062 2.609375 68.89453125 C3 66 3 66 4.98461914 63.81274414 C7.53496164 60.25338667 7.62898175 57.32738836 7.63671875 53.1015625 C7.64766068 52.34837738 7.6586026 51.59519226 7.6698761 50.81918335 C7.68569351 49.23076189 7.69095134 47.64220428 7.6862793 46.05371094 C7.68749365 43.63764115 7.74726269 41.22764107 7.81054688 38.8125 C8.15670147 30.86551492 8.15670147 30.86551492 5.40844727 23.68823242 C4.1611158 22.60645212 2.88055232 21.56142179 1.56518555 20.56347656 C-0.53848417 18.46210379 -0.55852342 17.09551476 -0.68359375 14.16015625 C-0.63763222 12.45957958 -0.55494459 10.75963884 -0.4375 9.0625 C-0.39012695 7.75055664 -0.39012695 7.75055664 -0.34179688 6.41210938 C-0.25998332 4.27326933 -0.13444475 2.13617762 0 0 Z " fill="#010101" transform="translate(29,23)"/>
<path d="M0 0 C2.05078125 0.03255208 4.1015625 0.06510417 6.15234375 0.09765625 C6.48234375 0.75765625 6.81234375 1.41765625 7.15234375 2.09765625 C27.61234375 2.09765625 48.07234375 2.09765625 69.15234375 2.09765625 C69.48234375 1.43765625 69.81234375 0.77765625 70.15234375 0.09765625 C76.3046875 0 76.3046875 0 78.15234375 0.09765625 C79.15234375 1.09765625 79.15234375 1.09765625 79.25 3.8203125 C79.23839844 4.92246094 79.22679688 6.02460937 79.21484375 7.16015625 C79.20582031 8.26488281 79.19679688 9.36960937 79.1875 10.5078125 C79.17589844 11.36246094 79.16429688 12.21710938 79.15234375 13.09765625 C76.15603096 14.59581264 73.08231684 14.2363001 69.796875 14.22705078 C68.66008804 14.22967926 68.66008804 14.22967926 67.50033569 14.23236084 C64.98848194 14.23677178 62.47669826 14.23384402 59.96484375 14.23046875 C58.22371405 14.23114201 56.48258445 14.23211222 54.74145508 14.23336792 C51.0896719 14.23484386 47.43791316 14.23269364 43.78613281 14.22802734 C39.09833328 14.22233012 34.41059101 14.22560967 29.72279358 14.23159981 C26.12666388 14.2352082 22.53054783 14.23406555 18.93441772 14.23147202 C17.20559686 14.23080352 15.47677476 14.23162849 13.74795532 14.23395157 C11.33454087 14.23648263 8.92121996 14.23263106 6.5078125 14.22705078 C5.42927505 14.23008713 5.42927505 14.23008713 4.32894897 14.23318481 C-0.61912729 14.21192073 -0.61912729 14.21192073 -2.84765625 13.09765625 C-2.87452178 11.11856227 -2.89399 9.13936654 -2.91015625 7.16015625 C-2.92175781 6.05800781 -2.93335937 4.95585938 -2.9453125 3.8203125 C-2.81361949 0.14871139 -2.81361949 0.14871139 0 0 Z " fill="#000000" transform="translate(25.84765625,99.90234375)"/>
<path d="M0 0 C5.28 0 10.56 0 16 0 C16 1.98 16 3.96 16 6 C18.97 6 21.94 6 25 6 C24.979375 5.195625 24.95875 4.39125 24.9375 3.5625 C25 1 25 1 26 0 C27.33043625 -0.0983721 28.66593344 -0.13078592 30 -0.1328125 C30.804375 -0.13410156 31.60875 -0.13539062 32.4375 -0.13671875 C33.283125 -0.13285156 34.12875 -0.12898438 35 -0.125 C36.2684375 -0.13080078 36.2684375 -0.13080078 37.5625 -0.13671875 C38.366875 -0.13542969 39.17125 -0.13414063 40 -0.1328125 C40.7425 -0.13168457 41.485 -0.13055664 42.25 -0.12939453 C44 0 44 0 45 1 C45.04063832 2.66617115 45.042721 4.33388095 45 6 C47.97 6 50.94 6 54 6 C54 4.02 54 2.04 54 0 C59.28 0 64.56 0 70 0 C70 6.27 70 12.54 70 19 C69.505 17.02 69.505 17.02 69 15 C46.56 15 24.12 15 1 15 C1.33 16.32 1.66 17.64 2 19 C1.34 19 0.68 19 0 19 C0 12.73 0 6.46 0 0 Z " fill="#000000" transform="translate(29,23)"/>
<path d="M0 0 C21.12 0 42.24 0 64 0 C64 4.29 64 8.58 64 13 C62.22083533 14.77916467 59.61686701 14.12764835 57.2109375 14.12939453 C55.9729541 14.13254669 54.7349707 14.13569885 53.45947266 14.13894653 C52.09798141 14.13715675 50.73649049 14.1351058 49.375 14.1328125 C47.98876936 14.13348559 46.60253883 14.13445566 45.21630859 14.13571167 C42.30760578 14.1371884 39.39893363 14.1350349 36.49023438 14.13037109 C32.75403402 14.12467381 29.01790548 14.12795294 25.28170776 14.13394356 C22.41820734 14.13754985 19.55472407 14.13641027 16.69122314 14.13381577 C15.31325268 14.13314668 13.93528068 14.13397426 12.55731201 14.13629532 C10.63456246 14.13882292 8.71180748 14.13429024 6.7890625 14.12939453 C5.14478271 14.12820114 5.14478271 14.12820114 3.46728516 14.12698364 C1 14 1 14 0 13 C0 8.71 0 4.42 0 0 Z " fill="#010101" transform="translate(32,89)"/>
<path d="M0 0 C0.98482361 -0.00960754 1.96964722 -0.01921509 2.98431396 -0.02911377 C4.05715637 -0.03336365 5.12999878 -0.03761353 6.23535156 -0.04199219 C7.88014496 -0.0505423 7.88014496 -0.0505423 9.5581665 -0.05926514 C11.88512197 -0.06873355 14.21209095 -0.07525639 16.5390625 -0.07910156 C20.09691913 -0.08878808 23.65419366 -0.11978687 27.21191406 -0.15136719 C29.46972312 -0.15789879 31.72753633 -0.16314864 33.98535156 -0.16699219 C35.05009705 -0.17933899 36.11484253 -0.19168579 37.21185303 -0.20440674 C46.67137088 -0.17594471 46.67137088 -0.17594471 50.37597656 3.16113281 C50.87097656 4.64613281 50.87097656 4.64613281 51.37597656 6.16113281 C30.91597656 6.16113281 10.45597656 6.16113281 -10.62402344 6.16113281 C-4.49815518 0.03526455 -4.49815518 0.03526455 0 0 Z " fill="#4C4C4C" transform="translate(43.6240234375,82.8388671875)"/>
<path d="M0 0 C22.44 0 44.88 0 68 0 C68 1.32 68 2.64 68 4 C45.89 4 23.78 4 1 4 C0.67 2.68 0.34 1.36 0 0 Z " fill="#D8D8D8" transform="translate(30,38)"/>
<path d="M0 0 C21.12 0 42.24 0 64 0 C63.67 1.32 63.34 2.64 63 4 C42.54 4 22.08 4 1 4 C0.67 2.68 0.34 1.36 0 0 Z " fill="#D4D4D4" transform="translate(32,89)"/>
<path d="M0 0 C20.46 0 40.92 0 62 0 C62 1.32 62 2.64 62 4 C41.54 4 21.08 4 0 4 C0 2.68 0 1.36 0 0 Z " fill="#D8D8D8" transform="translate(33,99)"/>
<path d="M0 0 C16.5 0 33 0 50 0 C50 0.99 50 1.98 50 3 C33.5 3 17 3 0 3 C0 2.01 0 1.02 0 0 Z " fill="#BFBFBF" transform="translate(39,47)"/>
</svg>
