<?xml version="1.0" encoding="UTF-8"?>
<svg version="1.1" xmlns="http://www.w3.org/2000/svg" width="128" height="128">
<path d="M0 0 C2.52507082 3.78760623 2.62059926 6.55391578 2 11 C0.625 13 0.625 13 -1 14 C-1.66 14 -2.32 14 -3 14 C-2.81824219 14.70382813 -2.63648438 15.40765625 -2.44921875 16.1328125 C-0.6646037 23.14314648 0.9105103 30.17267162 2.3515625 37.26171875 C2.72267897 39.89772483 2.72267897 39.89772483 4 41 C5.3750544 37.61225614 6.7212544 34.21375553 8.0625 30.8125 C8.64741211 29.37293945 8.64741211 29.37293945 9.24414062 27.90429688 C9.60830078 26.97294922 9.97246094 26.04160156 10.34765625 25.08203125 C10.68804932 24.22843018 11.02844238 23.3748291 11.37915039 22.49536133 C12.27309071 18.90237508 11.6358333 16.27166661 10 13 C9.42910916 6.83437892 9.42910916 6.83437892 11.625 3.625 C14.56278062 1.61493957 16.4396496 1.07266021 20 1 C22.32731556 2.13779872 24.16840714 3.16840714 26 5 C26.2734375 6.92578125 26.2734375 6.92578125 26.375 9.3125 C26.42398438 10.09238281 26.47296875 10.87226563 26.5234375 11.67578125 C26 14 26 14 23.5 15.6015625 C20.54163617 18.43974279 20.61369934 19.1460965 20.4765625 23.09765625 C20.50044346 25.08640968 20.55086762 27.07498524 20.625 29.0625 C20.63917969 30.06861328 20.65335937 31.07472656 20.66796875 32.11132812 C20.75476358 37.64596187 20.75476358 37.64596187 22 43 C24.03760533 40.07380821 26.05205726 37.13240552 28.0625 34.1875 C28.64322266 33.35412109 29.22394531 32.52074219 29.82226562 31.66210938 C30.63920898 30.45844727 30.63920898 30.45844727 31.47265625 29.23046875 C31.98062744 28.49207764 32.48859863 27.75368652 33.01196289 26.99291992 C34.35134042 24.87950813 34.35134042 24.87950813 33 22 C32.43925234 14.93457944 32.43925234 14.93457944 34.5 11.5 C38.03588973 9.37846616 40.97901723 9.208987 45 10 C47.5 11.5 47.5 11.5 49 14 C49.54759538 16.78360986 49.56992091 19.21878594 49 22 C47.25 24.5 47.25 24.5 45 26 C43.68 26 42.36 26 41 26 C40.95174072 26.57105469 40.90348145 27.14210938 40.85375977 27.73046875 C40.19947164 34.88004058 39.17210419 41.92871221 37.9375 49 C37.68709961 50.66675781 37.68709961 50.66675781 37.43164062 52.3671875 C36.10684769 59.80001917 33.91156545 64.23332934 28.64672852 69.68359375 C26.54207528 72.6441497 26.58960739 74.44264648 27 78 C28.35405861 79.60411246 28.35405861 79.60411246 30 81 C32.12632473 85.0288258 32.41846253 88.4806047 32 93 C30.28453719 95.51471253 29.10606049 95.97334058 26.12890625 96.72167969 C16.26727246 97.96653543 6.53926371 98.30939658 -3.39746094 98.26074219 C-5.99698192 98.25001246 -8.59581216 98.26070925 -11.1953125 98.2734375 C-37.83692067 98.29997297 -37.83692067 98.29997297 -42.87890625 94.63378906 C-44.81890435 91.80659671 -44.33713406 89.31515164 -44 86 C-42.64184747 82.72808708 -41.50104494 80.50104494 -39 78 C-38.5530406 74.47355072 -38.49400945 72.68966269 -40.62695312 69.7824707 C-41.33787109 69.06663818 -42.04878906 68.35080566 -42.78125 67.61328125 C-48.2575805 61.16748572 -49.21363547 54.25368461 -50.5 46.1875 C-50.74995404 44.78142736 -51.0025443 43.37582072 -51.2578125 41.97070312 C-53.16247732 31.21219849 -53.16247732 31.21219849 -53 26 C-53.763125 25.896875 -54.52625 25.79375 -55.3125 25.6875 C-59.3772242 24.64768683 -59.3772242 24.64768683 -61 22 C-61.75 15.25 -61.75 15.25 -59.5 11.5 C-55.96411027 9.37846616 -53.02098277 9.208987 -49 10 C-46.5 11.5 -46.5 11.5 -45 14 C-44.46399634 17.86077996 -44.76161252 21.28483757 -46 25 C-45.0210272 27.09302869 -45.0210272 27.09302869 -43.47265625 29.23046875 C-42.92802734 30.03291016 -42.38339844 30.83535156 -41.82226562 31.66210938 C-41.24154297 32.49548828 -40.66082031 33.32886719 -40.0625 34.1875 C-39.48564453 35.03248047 -38.90878906 35.87746094 -38.31445312 36.74804688 C-36.88537596 38.83851513 -35.44702665 40.92193442 -34 43 C-32.47308416 38.41925249 -32.69263677 33.8616364 -32.625 29.0625 C-32.58761719 28.06025391 -32.55023438 27.05800781 -32.51171875 26.02539062 C-32.47852211 23.26084817 -32.50097795 20.72035531 -33 18 C-35.36116129 15.55944859 -35.36116129 15.55944859 -38 14 C-38.59375 11.74609375 -38.59375 11.74609375 -38.5 9.4375 C-38.4896875 8.67308594 -38.479375 7.90867187 -38.46875 7.12109375 C-37.89159356 4.50946086 -37.11372897 3.60741715 -35 2 C-31.03726124 0.97262329 -28.88873027 0.59427531 -25.125 2.3125 C-23 4 -23 4 -22 6 C-21.64705882 12.47058824 -21.64705882 12.47058824 -24 16 C-23.70832947 21.93063401 -21.64681447 27.00827375 -19.4375 32.4375 C-19.10814453 33.26443359 -18.77878906 34.09136719 -18.43945312 34.94335938 C-17.63314164 36.96498093 -16.81751877 38.98288449 -16 41 C-14.1172271 35.83292817 -13.01363087 30.62656261 -11.9375 25.25 C-11.59498982 23.54636199 -11.2500546 21.84320917 -10.90234375 20.140625 C-10.75273193 19.39329102 -10.60312012 18.64595703 -10.44897461 17.87597656 C-10 16 -10 16 -9 14 C-9.639375 13.690625 -10.27875 13.38125 -10.9375 13.0625 C-13 12 -13 12 -14 11 C-14.59063136 3.79429735 -14.59063136 3.79429735 -12.1875 0.5625 C-7.68422466 -2.65412524 -5.0124149 -1.82269633 0 0 Z " fill="#000000" transform="translate(70,16)"/>
<path d="M0 0 C3.12633659 0.01072165 6.25209874 0.00005117 9.37841797 -0.01269531 C37.19069862 -0.03367488 37.19069862 -0.03367488 43.63232422 4.26074219 C43.52585567 9.37123231 42.62863837 11.59940238 39.06982422 15.32324219 C36.12664424 18.4315247 36.12664424 18.4315247 35.00732422 22.57324219 C35.70544407 25.57515753 36.38454537 26.27232244 38.63232422 28.26074219 C40.75864895 32.28956799 41.05078675 35.74134689 40.63232422 40.26074219 C38.91686141 42.77545471 37.73838471 43.23408277 34.76123047 43.98242188 C24.89959668 45.22727762 15.17158793 45.57013877 5.23486328 45.52148438 C2.6353423 45.51075464 0.03651206 45.52145144 -2.56298828 45.53417969 C-29.20459645 45.56071515 -29.20459645 45.56071515 -34.24658203 41.89453125 C-36.18658013 39.06733889 -35.70480985 36.57589383 -35.36767578 33.26074219 C-34.00952325 29.98882926 -32.86872072 27.76178713 -30.36767578 25.26074219 C-29.87007462 21.53391684 -29.99567242 19.81293468 -32.11767578 16.66308594 C-32.86017578 15.8496875 -33.60267578 15.03628906 -34.36767578 14.19824219 C-38.31423282 9.86114044 -38.31423282 9.86114044 -38.61767578 6.45214844 C-38.53517578 5.72898437 -38.45267578 5.00582031 -38.36767578 4.26074219 C-27.6040884 -1.85230833 -11.96087989 -0.04876633 0 0 Z " fill="#050505" transform="translate(61.36767578125,68.7392578125)"/>
<path d="M0 0 C0.33 0.99 0.66 1.98 1 3 C2.10472656 2.855625 3.20945312 2.71125 4.34765625 2.5625 C24.71368948 0.06479991 44.64109016 0.74090303 65 3 C65.33 2.01 65.66 1.02 66 0 C69.8598773 3.3335304 70.87942721 6.60135566 71.3125 11.625 C71 15 71 15 69.8828125 16.63769531 C61.87247715 22.43355517 45.09289375 20.30721097 35.60253906 20.26074219 C33.00301808 20.25001246 30.40418784 20.26070925 27.8046875 20.2734375 C1.16307933 20.29997297 1.16307933 20.29997297 -3.87890625 16.63378906 C-5.81890435 13.80659671 -5.33713406 11.31515164 -5 8 C-3.64184747 4.72808708 -2.50104494 2.50104494 0 0 Z " fill="#030303" transform="translate(31,94)"/>
<path d="M0 0 C0.80367004 -0.0033284 1.60734009 -0.0066568 2.43536377 -0.01008606 C4.12617425 -0.01511738 5.81699454 -0.01749557 7.5078125 -0.01733398 C10.05746332 -0.01951359 12.60667583 -0.03769109 15.15625 -0.05664062 C24.07549536 -0.08632794 32.57118666 0.23112712 41.328125 2.16796875 C42.16081046 5.64057554 42.36555192 8.44490166 41.890625 11.98046875 C41.78878906 12.77066406 41.68695313 13.56085938 41.58203125 14.375 C41.45634766 15.26251953 41.45634766 15.26251953 41.328125 16.16796875 C40.5091272 16.1225293 40.5091272 16.1225293 39.67358398 16.07617188 C18.83452988 14.95008769 -1.84251994 14.80689071 -22.671875 16.16796875 C-23.001875 11.87796875 -23.331875 7.58796875 -23.671875 3.16796875 C-15.81690903 0.71329188 -8.19364591 0.01212078 0 0 Z " fill="#111111" transform="translate(54.671875,80.83203125)"/>
<path d="M0 0 C3.09979103 0.02372976 6.19872405 0.02051718 9.29858398 0.01391602 C36.97942735 0.05179597 36.97942735 0.05179597 43.40600586 4.33618164 C43.07600586 5.32618164 42.74600586 6.31618164 42.40600586 7.33618164 C41.16592773 7.19180664 39.92584961 7.04743164 38.64819336 6.89868164 C13.17874844 4.14443341 -12.13154095 5.1039871 -37.59399414 7.33618164 C-37.59399414 6.01618164 -37.59399414 4.69618164 -37.59399414 3.33618164 C-25.01000176 0.52258788 -12.87357441 -0.10522801 0 0 Z " fill="#EDEDED" transform="translate(61.593994140625,68.663818359375)"/>
<path d="M0 0 C2.18273908 0.01069732 4.3646493 0.00004903 6.54736328 -0.01269531 C15.96465959 -0.02064173 25.01362 0.77208262 34.31689453 2.26074219 C34.81189453 4.24074219 34.81189453 4.24074219 35.31689453 6.26074219 C34.770896 6.23044922 34.22489746 6.20015625 33.66235352 6.16894531 C12.82329941 5.04286113 -7.85375041 4.89966414 -28.68310547 6.26074219 C-28.35310547 4.94074219 -28.02310547 3.62074219 -27.68310547 2.26074219 C-18.38902588 0.49024926 -9.42205864 -0.0546938 0 0 Z " fill="#EFEFEF" transform="translate(60.68310546875,90.7392578125)"/>
<path d="M0 0 C2.49650171 0.01075868 4.99228893 0.00001938 7.48876953 -0.01269531 C16.30552409 -0.01924711 24.71046177 0.36852563 33.36767578 2.26074219 C33.86267578 4.24074219 33.86267578 4.24074219 34.36767578 6.26074219 C33.02733276 6.15463623 33.02733276 6.15463623 31.65991211 6.04638672 C22.10979099 5.34309041 12.62887525 5.1012559 3.05517578 5.13574219 C1.9828923 5.13707153 1.9828923 5.13707153 0.88894653 5.13842773 C-9.97558676 5.1542084 -20.79804736 5.40740955 -31.63232422 6.26074219 C-31.30232422 4.94074219 -30.97232422 3.62074219 -30.63232422 2.26074219 C-20.35375023 0.41710828 -10.41397657 -0.05331037 0 0 Z " fill="#F1F1F1" transform="translate(62.63232421875,80.7392578125)"/>
</svg>
