<?xml version="1.0" encoding="UTF-8"?>
<svg version="1.1" xmlns="http://www.w3.org/2000/svg" width="128" height="128">
<path d="M0 0 C3.42599431 2.66466224 5.85648905 4.56946714 7.25 8.75 C7.16944413 10.31389504 7.06247589 11.8765266 6.9375 13.4375 C6.84621845 18.64815498 8.41454687 21.15505207 11.83984375 24.9609375 C15.28371389 29.33016887 14.71182164 35.46214219 14.25 40.75 C13.46553128 43.84682711 12.45061701 46.79133666 11.25 49.75 C12.02923828 50.36875 12.02923828 50.36875 12.82421875 51 C21.59568466 58.26361687 26.18707834 66.44426735 28.25 77.75 C28.25 82.04 28.25 86.33 28.25 90.75 C5.15 90.75 -17.95 90.75 -41.75 90.75 C-41.75 76.11189978 -40.4071994 65.92327586 -30.75 54.75 C-28.82231161 52.88558366 -26.92016662 51.3379268 -24.75 49.75 C-24.9665625 49.22792969 -25.183125 48.70585938 -25.40625 48.16796875 C-27.96729377 41.39780211 -29.31811467 34.41590983 -26.953125 27.37890625 C-25.62765493 24.60051707 -24.46085167 22.3641487 -22.11328125 20.3359375 C-20.21096538 18.1229282 -20.54126765 16.73637263 -20.75 13.875 C-20.91487937 8.20314963 -19.48958059 5.70702816 -15.75 1.5 C-11.33665599 -2.361676 -5.14036997 -2.3365318 0 0 Z " fill="#000000" transform="translate(70.75,24.25)"/>
</svg>
