<?xml version="1.0" encoding="UTF-8"?>
<svg version="1.1" xmlns="http://www.w3.org/2000/svg" width="128" height="128">
<path d="M0 0 C2.41796875 0.38671875 2.41796875 0.38671875 5 1 C7.09862498 3.89810116 7 5.28378861 7 9 C7.94746094 9.09474609 7.94746094 9.09474609 8.9140625 9.19140625 C20.84303964 10.8243354 31.44354322 15.7902489 39.10546875 25.21484375 C51.3418232 43.20354627 53.08028783 65.49179363 53.25 86.625 C53.2593457 87.43678711 53.26869141 88.24857422 53.27832031 89.08496094 C53.24657103 94.75342897 53.24657103 94.75342897 51 97 C48.22937012 97.24723816 48.22937012 97.24723816 44.65429688 97.24291992 C44.00372818 97.24481827 43.35315948 97.24671661 42.68287659 97.24867249 C40.52804592 97.25238331 38.37355082 97.24167187 36.21875 97.23046875 C34.72424357 97.22927698 33.22973638 97.22882378 31.73522949 97.2290802 C28.60127074 97.2275148 25.46742613 97.21922099 22.33349609 97.20581055 C18.31156082 97.18882061 14.28975107 97.18499619 10.26778412 97.18575573 C7.18120114 97.1854841 4.09464572 97.18000402 1.0080719 97.17275429 C-0.47513114 97.16956682 -1.9583373 97.16760003 -3.44154358 97.16686058 C-5.51251573 97.16469784 -7.58335349 97.15595508 -9.65429688 97.14526367 C-10.83407104 97.14145187 -12.01384521 97.13764008 -13.22937012 97.13371277 C-16 97 -16 97 -18 96 C-18.50135994 89.23164083 -17.55432178 83.86593448 -14 78 C-11.80083647 75.6018482 -9.52396336 73.34481972 -7.15356445 71.1171875 C-1.03604149 65.30137035 2.90581984 59.42518723 4 51 C2.97519531 51.81984375 1.95039062 52.6396875 0.89453125 53.484375 C-1.81380208 55.65104167 -4.52213542 57.81770833 -7.23046875 59.984375 C-7.87725586 60.50346436 -8.52404297 61.02255371 -9.19042969 61.55737305 C-10.7285136 62.78356541 -12.28255329 63.98970069 -13.83984375 65.19140625 C-16.22741971 67.04877107 -16.22741971 67.04877107 -18.375 70.1875 C-21 73 -21 73 -24.6875 74 C-25.780625 74 -26.87375 74 -28 74 C-28.66 73.34 -29.32 72.68 -30 72 C-31.446822 71.67320816 -32.90839253 71.40919648 -34.375 71.1875 C-37.59826546 70.50346296 -38.89372186 70.08767947 -41.5 67.9375 C-44.06028218 62.92361406 -44.65316667 58.87393336 -43.39453125 53.3359375 C-39.17369413 41.07772089 -32.08524591 27.04135656 -23.61328125 17.23828125 C-21.38537526 14.14726397 -21.59820784 11.94435592 -21.75 8.1875 C-21.80414063 6.44533203 -21.80414063 6.44533203 -21.859375 4.66796875 C-21.90578125 3.78753906 -21.9521875 2.90710938 -22 2 C-16.53690671 0.67630933 -16.53690671 0.67630933 -14.1015625 2.14453125 C-13.37066406 2.97017578 -13.37066406 2.97017578 -12.625 3.8125 C-11.87089844 4.62654297 -11.87089844 4.62654297 -11.1015625 5.45703125 C-10 7 -10 7 -10 9 C-6.54718834 7.84906278 -5.61917837 6.6794007 -3.3125 3.9375 C-2.68988281 3.20402344 -2.06726562 2.47054688 -1.42578125 1.71484375 C-0.95527344 1.14894531 -0.48476563 0.58304688 0 0 Z " fill="#010101" transform="translate(58,17)"/>
<path d="M0 0 C6.91442296 -0.9097925 12.36220743 2.61360808 17.953125 6.28125 C30.50494048 16.00608001 34.93796694 32.65550932 37.18188477 47.65698242 C38.65582719 59.36571603 38.2593731 71.22579119 38 83 C35.69 83 33.38 83 31 83 C30.9906543 81.998479 30.98130859 80.99695801 30.97167969 79.96508789 C30.93105716 76.16063898 30.8651223 72.35693925 30.79248047 68.55297852 C30.76468101 66.92319544 30.74326832 65.29328781 30.72900391 63.66333008 C30.56766653 46.24427181 28.30402531 29.13212313 17.75 14.625 C12.63988216 9.74716025 6.57999534 6.49099824 0 4 C0 2.68 0 1.36 0 0 Z " fill="#EDEDED" transform="translate(69,30)"/>
<path d="M0 0 C1.32 0.66 2.64 1.32 4 2 C3.49701212 6.40114397 1.91227269 8.71195019 -1 12 C-2.32 11.67 -3.64 11.34 -5 11 C-5.3125 8.3125 -5.3125 8.3125 -5 5 C-2.5 2.125 -2.5 2.125 0 0 Z " fill="#F1F1F1" transform="translate(42,38)"/>
<path d="M0 0 C2.0625 0.4375 2.0625 0.4375 4 1 C4.33 2.65 4.66 4.3 5 6 C2.625 6.625 2.625 6.625 0 7 C-0.66 6.34 -1.32 5.68 -2 5 C-1.46428571 1.46428571 -1.46428571 1.46428571 0 0 Z " fill="#F2F2F2" transform="translate(24,69)"/>
</svg>
