<?xml version="1.0" encoding="UTF-8"?>
<svg version="1.1" xmlns="http://www.w3.org/2000/svg" width="128" height="128">
<path d="M0 0 C2.74483673 1.24765306 4.47294058 2.35315435 6.375 4.6875 C7.47379678 8.75304808 6.88735119 13.22529763 5 17 C5.56847656 17.3403125 6.13695312 17.680625 6.72265625 18.03125 C14.69373448 23.03479827 21.13551845 28.7700039 24 38 C25.46881302 44.88506105 25.20764611 50.64937807 22 57 C19.8125 59.5625 19.8125 59.5625 18 61 C18.28875 61.61875 18.5775 62.2375 18.875 62.875 C20.74645278 68.07347995 22.44058979 73.41153501 21.5 78.9375 C19.46138438 81.74059647 17.16029076 82.69466251 14 84 C18.5384243 85.5128081 23.28878746 85.28268999 28.04492188 85.34179688 C35.02195644 85.5920158 40.07457188 87.71673903 45.5625 92 C47 94 47 94 46.9375 96.125 C46 98 46 98 43 100 C37.13258678 100.32004072 37.13258678 100.32004072 34.2668457 99.51025391 C30.92710705 98.75849798 27.57655949 98.74083582 24.16796875 98.6484375 C23.39115753 98.62483154 22.61434631 98.60122559 21.81399536 98.5769043 C19.27196125 98.50308065 16.72982498 98.43797167 14.1875 98.375 C13.32273041 98.35254211 12.45796082 98.33008423 11.56698608 98.3069458 C-0.5304396 98.00376618 -12.59276503 97.96498405 -24.6875 98.375 C-25.97954346 98.41802246 -27.27158691 98.46104492 -28.6027832 98.50537109 C-35.37423886 98.74576777 -35.37423886 98.74576777 -42 100 C-48.31303473 100.56366381 -48.31303473 100.56366381 -51.4375 98 C-51.953125 97.34 -52.46875 96.68 -53 96 C-52.00261116 92.40940017 -51.11279244 91.08827235 -48.125 88.75 C-44.24981771 86.57989792 -41.17255619 85.90521055 -36.77734375 85.71875 C-35.99166016 85.68136719 -35.20597656 85.64398438 -34.39648438 85.60546875 C-32.75326237 85.53498901 -31.11003316 85.4646773 -29.46679688 85.39453125 C-28.68240234 85.35714844 -27.89800781 85.31976563 -27.08984375 85.28125 C-26.37691162 85.25095703 -25.66397949 85.22066406 -24.92944336 85.18945312 C-22.78201514 85.05067635 -22.78201514 85.05067635 -20 84 C-21.134375 83.46375 -22.26875 82.9275 -23.4375 82.375 C-26.12576428 80.80457381 -26.86098902 80.32435896 -28.125 77.375 C-27.97744844 73.39110786 -26.99405512 70.11741428 -25.69140625 66.3671875 C-24.81309005 63.77108666 -24.81309005 63.77108666 -25 60 C-25.61875 59.236875 -26.2375 58.47375 -26.875 57.6875 C-30.43499837 53.18514911 -31.23757934 48.81840063 -30.9375 43.1875 C-29.73374604 34.08324589 -25.13130742 26.68393847 -18 21 C-15.7120004 19.49696713 -13.44452035 18.24720426 -11 17 C-11.350625 16.319375 -11.70125 15.63875 -12.0625 14.9375 C-13.26464175 11.17078919 -12.97146473 8.81646859 -12 5 C-8.3550308 0.53197324 -5.72027195 -0.44864878 0 0 Z " fill="#060606" transform="translate(67,13)"/>
<path d="M0 0 C8.46441544 4.85211518 14.98381645 10.44875208 18 20 C18.74734397 25.33520555 17.98653534 29.46870501 15 34 C9.58581684 39.2920269 4.35712448 38.64421721 -2.86499023 38.57641602 C-4.9292149 38.56255563 -6.98889261 38.59663289 -9.05273438 38.63476562 C-20.14657337 38.61841107 -20.14657337 38.61841107 -23.81640625 35.71484375 C-27.42849735 31.22396126 -28.53645105 28.22284401 -28.3671875 22.49609375 C-27.18155981 14.43634807 -22.48412224 8.72788728 -16.3359375 3.703125 C-6.51527958 -3.45708713 -6.51527958 -3.45708713 0 0 Z " fill="#F8F8F8" transform="translate(69,34)"/>
<path d="M0 0 C4.16467996 0.71730992 8.21636229 1.07696534 12.43359375 1.17578125 C13.41263672 1.19962891 14.39167969 1.22347656 15.40039062 1.24804688 C17.42101061 1.2909282 19.44191044 1.32222638 21.46289062 1.34179688 C28.04701995 1.52793597 32.32935353 2.61383328 38 6 C38 6.33 38 6.66 38 7 C36.85031738 6.84225098 35.70063477 6.68450195 34.51611328 6.52197266 C30.25521345 5.99144943 26.0319666 5.76756203 21.7421875 5.6484375 C20.96857376 5.62483154 20.19496002 5.60122559 19.39790344 5.5769043 C16.89039217 5.50363068 14.38278445 5.43819964 11.875 5.375 C11.0166153 5.35254211 10.15823059 5.33008423 9.27383423 5.3069458 C-10.15144279 4.81746229 -29.66893334 4.79339474 -49 7 C-46.44891049 3.88200171 -43.84995684 3.00607807 -40 2 C-37.02734375 1.71289062 -37.02734375 1.71289062 -33.9375 1.65625 C-32.81085937 1.62660156 -31.68421875 1.59695312 -30.5234375 1.56640625 C-28.17447917 1.52213542 -25.82552083 1.47786458 -23.4765625 1.43359375 C-22.34992187 1.40394531 -21.22328125 1.37429687 -20.0625 1.34375 C-19.04285156 1.32505859 -18.02320312 1.30636719 -16.97265625 1.28710938 C-1.30156495 -0.22645858 -1.30156495 -0.22645858 0 0 Z " fill="#E8E8E8" transform="translate(69,101)"/>
<path d="M0 0 C13.2 0 26.4 0 40 0 C39.67 1.32 39.34 2.64 39 4 C32.73638344 7.19335827 27.00341421 7.48975877 20.0625 7.4375 C19.12470703 7.45748047 18.18691406 7.47746094 17.22070312 7.49804688 C10.63548929 7.49347063 5.77923972 6.14459945 0 3 C0 2.01 0 1.02 0 0 Z " fill="#E2E2E2" transform="translate(44,87)"/>
<path d="M0 0 C1.28455078 -0.04125 2.56910156 -0.0825 3.89257812 -0.125 C13.13580271 -0.20198677 13.13580271 -0.20198677 16.18896484 1.8359375 C19.1875 5.37034059 19.1875 5.37034059 19.1875 7.5 C6.6475 7.5 -5.8925 7.5 -18.8125 7.5 C-13.5568734 -1.25937767 -9.63963311 0.07669524 0 0 Z " fill="#FBFBFB" transform="translate(63.8125,75.5)"/>
<path d="M0 0 C1.32 0 2.64 0 4 0 C4 2.31 4 4.62 4 7 C6.31 7 8.62 7 11 7 C10.67 8.32 10.34 9.64 10 11 C8.02 11 6.04 11 4 11 C4 14.96 4 18.92 4 23 C2.68 23 1.36 23 0 23 C0 19.04 0 15.08 0 11 C-1.98 11 -3.96 11 -6 11 C-6.33 9.68 -6.66 8.36 -7 7 C-4.69 7 -2.38 7 0 7 C0 4.69 0 2.38 0 0 Z " fill="#050505" transform="translate(62,41)"/>
<path d="M0 0 C3 0.25 3 0.25 5 2.25 C5.36796448 5.12012296 5.37509409 6.65774618 3.8125 9.125 C2 10.25 2 10.25 -0.5625 10.0625 C-3 9.25 -3 9.25 -5 7.25 C-5.25 4.75 -5.25 4.75 -5 2.25 C-3 0.25 -3 0.25 0 0 Z " fill="#EBEBEB" transform="translate(64,17.75)"/>
<path d="M0 0 C1.9375 0.6875 1.9375 0.6875 2.9375 2.6875 C-0.3625 3.0175 -3.6625 3.3475 -7.0625 3.6875 C-2.93092105 -0.44407895 -2.93092105 -0.44407895 0 0 Z " fill="#D5D5D5" transform="translate(27.0625,104.3125)"/>
</svg>
