<?xml version="1.0" encoding="UTF-8"?>
<svg version="1.1" xmlns="http://www.w3.org/2000/svg" width="128" height="128">
<path d="M0 0 C3.42599431 2.66466224 5.85648905 4.56946714 7.25 8.75 C7.16944413 10.31389504 7.06247589 11.8765266 6.9375 13.4375 C6.84621845 18.64815498 8.41454687 21.15505207 11.83984375 24.9609375 C15.28371389 29.33016887 14.71182164 35.46214219 14.25 40.75 C13.46553128 43.84682711 12.45061701 46.79133666 11.25 49.75 C12.02923828 50.36875 12.02923828 50.36875 12.82421875 51 C21.59568466 58.26361687 26.18707834 66.44426735 28.25 77.75 C28.25 82.04 28.25 86.33 28.25 90.75 C5.15 90.75 -17.95 90.75 -41.75 90.75 C-41.75 76.11189978 -40.4071994 65.92327586 -30.75 54.75 C-28.82231161 52.88558366 -26.92016662 51.3379268 -24.75 49.75 C-24.9665625 49.22792969 -25.183125 48.70585938 -25.40625 48.16796875 C-27.96729377 41.39780211 -29.31811467 34.41590983 -26.953125 27.37890625 C-25.62765493 24.60051707 -24.46085167 22.3641487 -22.11328125 20.3359375 C-20.21096538 18.1229282 -20.54126765 16.73637263 -20.75 13.875 C-20.91487937 8.20314963 -19.48958059 5.70702816 -15.75 1.5 C-11.33665599 -2.361676 -5.14036997 -2.3365318 0 0 Z " fill="#FCFCFC" transform="translate(70.75,24.25)"/>
<path d="M0 0 C3.42599431 2.66466224 5.85648905 4.56946714 7.25 8.75 C7.16944413 10.31389504 7.06247589 11.8765266 6.9375 13.4375 C6.84621845 18.64815498 8.41454687 21.15505207 11.83984375 24.9609375 C15.28371389 29.33016887 14.71182164 35.46214219 14.25 40.75 C13.46553128 43.84682711 12.45061701 46.79133666 11.25 49.75 C12.02923828 50.36875 12.02923828 50.36875 12.82421875 51 C21.59568466 58.26361687 26.18707834 66.44426735 28.25 77.75 C28.25 82.04 28.25 86.33 28.25 90.75 C5.15 90.75 -17.95 90.75 -41.75 90.75 C-41.75 76.11189978 -40.4071994 65.92327586 -30.75 54.75 C-28.82231161 52.88558366 -26.92016662 51.3379268 -24.75 49.75 C-24.9665625 49.22792969 -25.183125 48.70585938 -25.40625 48.16796875 C-27.96729377 41.39780211 -29.31811467 34.41590983 -26.953125 27.37890625 C-25.62765493 24.60051707 -24.46085167 22.3641487 -22.11328125 20.3359375 C-20.21096538 18.1229282 -20.54126765 16.73637263 -20.75 13.875 C-20.91487937 8.20314963 -19.48958059 5.70702816 -15.75 1.5 C-11.33665599 -2.361676 -5.14036997 -2.3365318 0 0 Z M-15.75 8.75 C-16.19966578 12.9468806 -15.7411276 16.66159867 -14.75 20.75 C-15.513125 21.306875 -16.27625 21.86375 -17.0625 22.4375 C-20.48680018 25.38399085 -22.47239107 27.47969132 -23.03515625 32.08203125 C-23.21822258 37.39095492 -22.76908516 41.22137226 -19.75 45.75 C-18.4338372 47.10028554 -17.10275442 48.43637484 -15.75 49.75 C-16.41386719 50.18570313 -17.07773437 50.62140625 -17.76171875 51.0703125 C-26.83886569 57.19241745 -33.39741585 64.27209006 -36.390625 75.05859375 C-36.86256837 78.59303922 -36.75 82.18418518 -36.75 85.75 C-16.95 85.75 2.85 85.75 23.25 85.75 C23.25 73.74052337 20.64989242 65.465546 12.25 56.75 C9.99109475 54.85289066 7.7533669 53.33867515 5.25 51.75 C4.26 51.09 3.27 50.43 2.25 49.75 C2.67152344 49.27949219 3.09304687 48.80898437 3.52734375 48.32421875 C4.07519531 47.70160156 4.62304688 47.07898438 5.1875 46.4375 C6.00541016 45.51517578 6.00541016 45.51517578 6.83984375 44.57421875 C9.71755109 40.85153363 9.63850342 36.84726808 9.60546875 32.328125 C9.04691384 28.27706741 7.11403845 25.5898353 4.25 22.75 C3.26 22.09 2.27 21.43 1.25 20.75 C1.4975 19.7290625 1.4975 19.7290625 1.75 18.6875 C2.93284923 11.91395476 2.93284923 11.91395476 0.25 5.8125 C-3.08588599 3.51907838 -4.84984094 2.99184491 -8.8125 3.26953125 C-12.3185303 4.13897022 -13.76216563 5.83036827 -15.75 8.75 Z " fill="#070707" transform="translate(70.75,24.25)"/>
</svg>
