<?xml version="1.0" encoding="UTF-8"?>
<svg version="1.1" xmlns="http://www.w3.org/2000/svg" width="128" height="128">
<path d="M0 0 C2.41796875 0.38671875 2.41796875 0.38671875 5 1 C7.09862498 3.89810116 7 5.28378861 7 9 C7.94746094 9.09474609 7.94746094 9.09474609 8.9140625 9.19140625 C20.84303964 10.8243354 31.44354322 15.7902489 39.10546875 25.21484375 C51.3418232 43.20354627 53.08028783 65.49179363 53.25 86.625 C53.2593457 87.43678711 53.26869141 88.24857422 53.27832031 89.08496094 C53.24657103 94.75342897 53.24657103 94.75342897 51 97 C48.22937012 97.24723816 48.22937012 97.24723816 44.65429688 97.24291992 C44.00372818 97.24481827 43.35315948 97.24671661 42.68287659 97.24867249 C40.52804592 97.25238331 38.37355082 97.24167187 36.21875 97.23046875 C34.72424357 97.22927698 33.22973638 97.22882378 31.73522949 97.2290802 C28.60127074 97.2275148 25.46742613 97.21922099 22.33349609 97.20581055 C18.31156082 97.18882061 14.28975107 97.18499619 10.26778412 97.18575573 C7.18120114 97.1854841 4.09464572 97.18000402 1.0080719 97.17275429 C-0.47513114 97.16956682 -1.9583373 97.16760003 -3.44154358 97.16686058 C-5.51251573 97.16469784 -7.58335349 97.15595508 -9.65429688 97.14526367 C-10.83407104 97.14145187 -12.01384521 97.13764008 -13.22937012 97.13371277 C-16 97 -16 97 -18 96 C-18.50135994 89.23164083 -17.55432178 83.86593448 -14 78 C-11.80083647 75.6018482 -9.52396336 73.34481972 -7.15356445 71.1171875 C-1.03604149 65.30137035 2.90581984 59.42518723 4 51 C2.97519531 51.81984375 1.95039062 52.6396875 0.89453125 53.484375 C-1.81380208 55.65104167 -4.52213542 57.81770833 -7.23046875 59.984375 C-7.87725586 60.50346436 -8.52404297 61.02255371 -9.19042969 61.55737305 C-10.7285136 62.78356541 -12.28255329 63.98970069 -13.83984375 65.19140625 C-16.22741971 67.04877107 -16.22741971 67.04877107 -18.375 70.1875 C-21 73 -21 73 -24.6875 74 C-25.780625 74 -26.87375 74 -28 74 C-28.66 73.34 -29.32 72.68 -30 72 C-31.446822 71.67320816 -32.90839253 71.40919648 -34.375 71.1875 C-37.59826546 70.50346296 -38.89372186 70.08767947 -41.5 67.9375 C-44.06028218 62.92361406 -44.65316667 58.87393336 -43.39453125 53.3359375 C-39.17369413 41.07772089 -32.08524591 27.04135656 -23.61328125 17.23828125 C-21.38537526 14.14726397 -21.59820784 11.94435592 -21.75 8.1875 C-21.80414063 6.44533203 -21.80414063 6.44533203 -21.859375 4.66796875 C-21.90578125 3.78753906 -21.9521875 2.90710938 -22 2 C-16.53690671 0.67630933 -16.53690671 0.67630933 -14.1015625 2.14453125 C-13.37066406 2.97017578 -13.37066406 2.97017578 -12.625 3.8125 C-11.87089844 4.62654297 -11.87089844 4.62654297 -11.1015625 5.45703125 C-10 7 -10 7 -10 9 C-6.54718834 7.84906278 -5.61917837 6.6794007 -3.3125 3.9375 C-2.68988281 3.20402344 -2.06726562 2.47054688 -1.42578125 1.71484375 C-0.95527344 1.14894531 -0.48476563 0.58304688 0 0 Z " fill="#FBFBFB" transform="translate(58,17)"/>
<path d="M0 0 C2.41796875 0.38671875 2.41796875 0.38671875 5 1 C7.09862498 3.89810116 7 5.28378861 7 9 C7.94746094 9.09474609 7.94746094 9.09474609 8.9140625 9.19140625 C20.84303964 10.8243354 31.44354322 15.7902489 39.10546875 25.21484375 C51.3418232 43.20354627 53.08028783 65.49179363 53.25 86.625 C53.2593457 87.43678711 53.26869141 88.24857422 53.27832031 89.08496094 C53.24657103 94.75342897 53.24657103 94.75342897 51 97 C48.22937012 97.24723816 48.22937012 97.24723816 44.65429688 97.24291992 C44.00372818 97.24481827 43.35315948 97.24671661 42.68287659 97.24867249 C40.52804592 97.25238331 38.37355082 97.24167187 36.21875 97.23046875 C34.72424357 97.22927698 33.22973638 97.22882378 31.73522949 97.2290802 C28.60127074 97.2275148 25.46742613 97.21922099 22.33349609 97.20581055 C18.31156082 97.18882061 14.28975107 97.18499619 10.26778412 97.18575573 C7.18120114 97.1854841 4.09464572 97.18000402 1.0080719 97.17275429 C-0.47513114 97.16956682 -1.9583373 97.16760003 -3.44154358 97.16686058 C-5.51251573 97.16469784 -7.58335349 97.15595508 -9.65429688 97.14526367 C-10.83407104 97.14145187 -12.01384521 97.13764008 -13.22937012 97.13371277 C-16 97 -16 97 -18 96 C-18.50135994 89.23164083 -17.55432178 83.86593448 -14 78 C-11.80083647 75.6018482 -9.52396336 73.34481972 -7.15356445 71.1171875 C-1.03604149 65.30137035 2.90581984 59.42518723 4 51 C2.97519531 51.81984375 1.95039062 52.6396875 0.89453125 53.484375 C-1.81380208 55.65104167 -4.52213542 57.81770833 -7.23046875 59.984375 C-7.87725586 60.50346436 -8.52404297 61.02255371 -9.19042969 61.55737305 C-10.7285136 62.78356541 -12.28255329 63.98970069 -13.83984375 65.19140625 C-16.22741971 67.04877107 -16.22741971 67.04877107 -18.375 70.1875 C-21 73 -21 73 -24.6875 74 C-25.780625 74 -26.87375 74 -28 74 C-28.66 73.34 -29.32 72.68 -30 72 C-31.446822 71.67320816 -32.90839253 71.40919648 -34.375 71.1875 C-37.59826546 70.50346296 -38.89372186 70.08767947 -41.5 67.9375 C-44.06028218 62.92361406 -44.65316667 58.87393336 -43.39453125 53.3359375 C-39.17369413 41.07772089 -32.08524591 27.04135656 -23.61328125 17.23828125 C-21.38537526 14.14726397 -21.59820784 11.94435592 -21.75 8.1875 C-21.80414063 6.44533203 -21.80414063 6.44533203 -21.859375 4.66796875 C-21.90578125 3.78753906 -21.9521875 2.90710938 -22 2 C-16.53690671 0.67630933 -16.53690671 0.67630933 -14.1015625 2.14453125 C-13.37066406 2.97017578 -13.37066406 2.97017578 -12.625 3.8125 C-11.87089844 4.62654297 -11.87089844 4.62654297 -11.1015625 5.45703125 C-10 7 -10 7 -10 9 C-6.54718834 7.84906278 -5.61917837 6.6794007 -3.3125 3.9375 C-2.68988281 3.20402344 -2.06726562 2.47054688 -1.42578125 1.71484375 C-0.95527344 1.14894531 -0.48476563 0.58304688 0 0 Z M0 6 C-2.96235695 9.63323689 -2.96235695 9.63323689 -4 14 C-11.26153846 13.63076923 -11.26153846 13.63076923 -15 10.4375 C-15.66 9.633125 -16.32 8.82875 -17 8 C-16.92136719 9.19109375 -16.84273437 10.3821875 -16.76171875 11.609375 C-16.7726389 16.13230415 -18.15467415 18.54486975 -20.8125 22.25 C-24.89553053 28.16636359 -28.49054889 34.25445909 -31.9375 40.5625 C-32.40969971 41.4194043 -32.88189941 42.27630859 -33.3684082 43.15917969 C-38.26275384 52.02774237 -38.26275384 52.02774237 -39 62 C-38.04826062 64.52040427 -38.04826062 64.52040427 -36 66 C-32.87413125 66.33397787 -32.87413125 66.33397787 -30 66 C-29.67 64.68 -29.34 63.36 -29 62 C-26.525 61.505 -26.525 61.505 -24 61 C-24.33 63.64 -24.66 66.28 -25 69 C-24.319375 68.29875 -23.63875 67.5975 -22.9375 66.875 C-18.44805941 62.39813487 -13.5837347 58.42565303 -8.5625 54.5625 C2.38380861 46.61230076 2.38380861 46.61230076 8.75 35.125 C8.8325 34.42375 8.915 33.7225 9 33 C9.99 32.67 10.98 32.34 12 32 C11.71125 33.155 11.4225 34.31 11.125 35.5 C10.2607122 39.2730633 9.77304534 42.9970347 9.40014648 46.84863281 C8.17038597 58.92880617 4.34888094 65.92819956 -3.96582031 74.6652832 C-9.12244785 80.08890632 -13 84.23565934 -13 92 C7.13 92 27.26 92 48 92 C48.2338064 56.19324981 48.2338064 56.19324981 32.26171875 25.00390625 C24.56211114 17.59124054 14.36741822 14.53676332 4 13 C3.34 10.69 2.68 8.38 2 6 C1.34 6 0.68 6 0 6 Z " fill="#050505" transform="translate(58,17)"/>
<path d="M0 0 C1.32 0.66 2.64 1.32 4 2 C3.49701212 6.40114397 1.91227269 8.71195019 -1 12 C-2.32 11.67 -3.64 11.34 -5 11 C-4.50769231 4.6 -4.50769231 4.6 -1.9375 1.5625 C-0.9784375 0.7890625 -0.9784375 0.7890625 0 0 Z " fill="#0B0B0B" transform="translate(42,38)"/>
<path d="M0 0 C2.125 0.375 2.125 0.375 4 1 C4.625 2.875 4.625 2.875 5 5 C4.34 5.66 3.68 6.32 3 7 C0.875 6.625 0.875 6.625 -1 6 C-1.625 4.125 -1.625 4.125 -2 2 C-1.34 1.34 -0.68 0.68 0 0 Z " fill="#090909" transform="translate(24,69)"/>
</svg>
