<svg width="128" height="128" version="1.1" xmlns="http://www.w3.org/2000/svg" desc="Created with imagetracer.js version 1.2.6" ><path fill="rgb(0,0,0)" stroke="rgb(0,0,0)" stroke-width="1" opacity="0.21176470588235294" d="M 57.5 18 L 57 19.5 L 56.5 21 L 56 19.5 L 57.5 18 Z " /><path fill="rgb(0,0,0)" stroke="rgb(0,0,0)" stroke-width="1" opacity="0.21176470588235294" d="M 70.5 18 L 72 20.5 L 71 20.5 L 70.5 18 Z " /><path fill="rgb(0,0,0)" stroke="rgb(0,0,0)" stroke-width="1" opacity="0.21176470588235294" d="M 34.5 19 L 33.5 21 L 34.5 19 Z " /><path fill="rgb(0,0,0)" stroke="rgb(0,0,0)" stroke-width="1" opacity="0.21176470588235294" d="M 93.5 19 L 94.5 21 L 93.5 19 Z " /><path fill="rgb(0,0,0)" stroke="rgb(0,0,0)" stroke-width="1" opacity="0.21176470588235294" d="M 12.5 27 L 10.5 30 L 12.5 27 Z " /><path fill="rgb(0,0,0)" stroke="rgb(0,0,0)" stroke-width="1" opacity="0.21176470588235294" d="M 21.5 27 L 23.5 30 L 21.5 27 Z " /><path fill="rgb(0,0,0)" stroke="rgb(0,0,0)" stroke-width="1" opacity="0.21176470588235294" d="M 57.5 27 L 59.5 30 L 57.5 27 Z " /><path fill="rgb(0,0,0)" stroke="rgb(0,0,0)" stroke-width="1" opacity="0.21176470588235294" d="M 70.5 27 L 68.5 30 L 70.5 27 Z " /><path fill="rgb(0,0,0)" stroke="rgb(0,0,0)" stroke-width="1" opacity="0.21176470588235294" d="M 106.5 27 L 104.5 30 L 106.5 27 Z " /><path fill="rgb(0,0,0)" stroke="rgb(0,0,0)" stroke-width="1" opacity="0.21176470588235294" d="M 115.5 27 L 117.5 30 L 115.5 27 Z " /><path fill="rgb(0,0,0)" stroke="rgb(0,0,0)" stroke-width="1" opacity="0.21176470588235294" d="M 33.5 30 L 35.5 33 L 33.5 30 Z " /><path fill="rgb(0,0,0)" stroke="rgb(0,0,0)" stroke-width="1" opacity="0.21176470588235294" d="M 94.5 30 L 92.5 33 L 94.5 30 Z " /><path fill="rgb(0,0,0)" stroke="rgb(0,0,0)" stroke-width="1" opacity="0.21176470588235294" d="M 38.5 34 L 39 36.5 L 38 36.5 L 38.5 34 Z " /><path fill="rgb(0,0,0)" stroke="rgb(0,0,0)" stroke-width="1" opacity="0.21176470588235294" d="M 89.5 34 L 90 36.5 L 89 36.5 L 89.5 34 Z " /><path fill="rgb(0,0,0)" stroke="rgb(0,0,0)" stroke-width="1" opacity="0.21176470588235294" d="M 24.5 36 L 25 37.5 L 23 38.5 L 24.5 36 Z " /><path fill="rgb(0,0,0)" stroke="rgb(0,0,0)" stroke-width="1" opacity="0.21176470588235294" d="M 103.5 36 L 105 38.5 L 103 37.5 L 103.5 36 Z " /><path fill="rgb(0,0,0)" stroke="rgb(0,0,0)" stroke-width="1" opacity="0.21176470588235294" d="M 10.5 38 L 12.5 41 L 10.5 38 Z " /><path fill="rgb(0,0,0)" stroke="rgb(0,0,0)" stroke-width="1" opacity="0.21176470588235294" d="M 117.5 38 L 115.5 41 L 117.5 38 Z " /><path fill="rgb(0,0,0)" stroke="rgb(0,0,0)" stroke-width="1" opacity="0.21176470588235294" d="M 22.5 40 L 23.5 42 L 22.5 40 Z " /><path fill="rgb(0,0,0)" stroke="rgb(0,0,0)" stroke-width="1" opacity="0.21176470588235294" d="M 105.5 40 L 104.5 42 L 105.5 40 Z " /><path fill="rgb(0,0,0)" stroke="rgb(0,0,0)" stroke-width="1" opacity="0.21176470588235294" d="M 57.5 47 L 58 49.5 L 57 49.5 L 57.5 47 Z " /><path fill="rgb(0,0,0)" stroke="rgb(0,0,0)" stroke-width="1" opacity="0.21176470588235294" d="M 70.5 47 L 71 49.5 L 70 49.5 L 70.5 47 Z " /><path fill="rgb(0,0,0)" stroke="rgb(0,0,0)" stroke-width="1" opacity="0.21176470588235294" d="M 29.5 51 L 30.5 53 L 29.5 51 Z " /><path fill="rgb(0,0,0)" stroke="rgb(0,0,0)" stroke-width="1" opacity="0.21176470588235294" d="M 98.5 51 L 97.5 53 L 98.5 51 Z " /><path fill="rgb(0,0,0)" stroke="rgb(0,0,0)" stroke-width="1" opacity="0.21176470588235294" d="M 56.5 52 L 57 54.5 L 56 54.5 L 56.5 52 Z " /><path fill="rgb(0,0,0)" stroke="rgb(0,0,0)" stroke-width="1" opacity="0.21176470588235294" d="M 71.5 52 L 72 54.5 L 71 54.5 L 71.5 52 Z " /><path fill="rgb(0,0,0)" stroke="rgb(0,0,0)" stroke-width="1" opacity="0.21176470588235294" d="M 31.5 54 L 32.5 56 L 31.5 54 Z " /><path fill="rgb(0,0,0)" stroke="rgb(0,0,0)" stroke-width="1" opacity="0.21176470588235294" d="M 96.5 54 L 95.5 56 L 96.5 54 Z " /><path fill="rgb(0,0,0)" stroke="rgb(0,0,0)" stroke-width="1" opacity="0.21176470588235294" d="M 33.5 57 L 34.5 59 L 33.5 57 Z " /><path fill="rgb(0,0,0)" stroke="rgb(0,0,0)" stroke-width="1" opacity="0.21176470588235294" d="M 94.5 57 L 93.5 59 L 94.5 57 Z " /><path fill="rgb(0,0,0)" stroke="rgb(0,0,0)" stroke-width="1" opacity="0.21176470588235294" d="M 35.5 60 L 38 61 L 37.5 64 L 35.5 60 Z " /><path fill="rgb(0,0,0)" stroke="rgb(0,0,0)" stroke-width="1" opacity="0.21176470588235294" d="M 92.5 60 L 91 62.5 L 90.5 64 L 90 61 L 92.5 60 Z " /><path fill="rgb(0,0,0)" stroke="rgb(0,0,0)" stroke-width="1" opacity="0.21176470588235294" d="M 25.5 80 L 29.5 85 L 25.5 80 Z " /><path fill="rgb(0,0,0)" stroke="rgb(0,0,0)" stroke-width="1" opacity="0.21176470588235294" d="M 102.5 80 L 98.5 85 L 102.5 80 Z " /><path fill="rgb(0,0,0)" stroke="rgb(0,0,0)" stroke-width="1" opacity="0.21176470588235294" d="M 30.5 86 L 31.5 88 L 30.5 86 Z " /><path fill="rgb(0,0,0)" stroke="rgb(0,0,0)" stroke-width="1" opacity="0.21176470588235294" d="M 97.5 86 L 96.5 88 L 97.5 86 Z " /><path fill="rgb(0,0,0)" stroke="rgb(0,0,0)" stroke-width="1" opacity="0.21176470588235294" d="M 32.5 89 L 33 92.5 L 32 92.5 L 32.5 89 Z " /><path fill="rgb(0,0,0)" stroke="rgb(0,0,0)" stroke-width="1" opacity="0.21176470588235294" d="M 95.5 89 L 96 92.5 L 95 92.5 L 95.5 89 Z " /><path fill="rgb(0,0,0)" stroke="rgb(0,0,0)" stroke-width="1" opacity="0.21176470588235294" d="M 31.5 94 L 29.5 97 L 31.5 94 Z " /><path fill="rgb(0,0,0)" stroke="rgb(0,0,0)" stroke-width="1" opacity="0.21176470588235294" d="M 96.5 94 L 98.5 97 L 96.5 94 Z " /><path fill="rgb(0,0,0)" stroke="rgb(0,0,0)" stroke-width="1" opacity="0.21176470588235294" d="M 27.5 109 L 28.5 111 L 27.5 109 Z " /><path fill="rgb(0,0,0)" stroke="rgb(0,0,0)" stroke-width="1" opacity="0.21176470588235294" d="M 100.5 109 L 99.5 111 L 100.5 109 Z " /><path fill="rgb(0,0,0)" stroke="rgb(0,0,0)" stroke-width="1" opacity="0.21176470588235294" d="M 35.5 112 L 39 112.5 L 35.5 113 L 35.5 112 Z " /><path fill="rgb(0,0,0)" stroke="rgb(0,0,0)" stroke-width="1" opacity="0.21176470588235294" d="M 89.5 112 L 93 112.5 L 89.5 113 L 89.5 112 Z " /><path fill="rgb(0,0,0)" stroke="rgb(0,0,0)" stroke-width="1" opacity="0.21176470588235294" d="M 45.5 113 L 54 113.5 L 45.5 114 L 45.5 113 Z " /><path fill="rgb(0,0,0)" stroke="rgb(0,0,0)" stroke-width="1" opacity="0.21176470588235294" d="M 74.5 113 L 83 113.5 L 74.5 114 L 74.5 113 Z " /><path fill="rgb(0,0,0)" stroke="rgb(0,0,0)" stroke-width="1" opacity="0" d="M 0 0 L 128 0 L 128 128 L 0 128 L 0 0 Z M 61 15 L 56 20 L 57 28 L 61 30 L 55 60 L 44 34 L 48 28 L 47 22 L 41 17 L 35 19 L 32 23 L 33 31 Q 34 34 38 33 L 38 61 L 37 61 L 23 41 L 25 38 L 24 30 L 20 26 L 13 27 L 9 32 L 10 39 Q 12 42 17 42 L 23 72 L 23 77 L 32 89 L 32 94 L 29 97 L 26 104 L 27 110 L 31 112 L 45 113 L 46 114 L 83 114 L 100 111 L 102 108 Q 102 98 96 94 L 96 89 L 105 77 L 105 72 L 111 42 L 116 41 L 119 37 L 118 30 L 114 26 L 107 27 L 103 32 Q 102 38 105 40 L 93 60 L 90 61 L 90 34 L 93 33 L 96 29 L 95 21 L 89 17 L 85 18 L 80 24 Q 79 29 82 31 Q 81 33 84 32 L 74 60 L 67 33 Q 66 29 69 30 Q 73 28 72 20 Q 70 13 61 15 Z " /><path fill="rgb(60,60,60)" stroke="rgb(60,60,60)" stroke-width="1" opacity="1" d="M 43.5 24 L 44 26.5 L 43 26.5 L 43.5 24 Z " /><path fill="rgb(60,60,60)" stroke="rgb(60,60,60)" stroke-width="1" opacity="1" d="M 84.5 24 L 85 26.5 L 84 26.5 L 84.5 24 Z " /><path fill="rgb(60,60,60)" stroke="rgb(60,60,60)" stroke-width="1" opacity="1" d="M 36.5 27 L 37.5 29 L 36.5 27 Z " /><path fill="rgb(60,60,60)" stroke="rgb(60,60,60)" stroke-width="1" opacity="1" d="M 91.5 27 L 90.5 29 L 91.5 27 Z " /><path fill="rgb(60,60,60)" stroke="rgb(60,60,60)" stroke-width="1" opacity="1" d="M 19.5 31 L 20.5 33 L 19.5 31 Z " /><path fill="rgb(60,60,60)" stroke="rgb(60,60,60)" stroke-width="1" opacity="1" d="M 108.5 31 L 107.5 33 L 108.5 31 Z " /><path fill="rgb(60,60,60)" stroke="rgb(60,60,60)" stroke-width="1" opacity="1" d="M 13.5 33 L 14 35.5 L 13 35.5 L 13.5 33 Z " /><path fill="rgb(60,60,60)" stroke="rgb(60,60,60)" stroke-width="1" opacity="1" d="M 114.5 33 L 115 35.5 L 114 35.5 L 114.5 33 Z " /><path fill="rgb(60,60,60)" stroke="rgb(60,60,60)" stroke-width="1" opacity="1" d="M 42.5 42 L 43.5 44 Q 40.7 44.7 42.5 42 Z " /><path fill="rgb(60,60,60)" stroke="rgb(60,60,60)" stroke-width="1" opacity="1" d="M 85.5 42 L 86 44.5 L 84 43.5 L 85.5 42 Z " /><path fill="rgb(60,60,60)" stroke="rgb(60,60,60)" stroke-width="1" opacity="1" d="M 26.5 54 L 27.5 56 L 26.5 54 Z " /><path fill="rgb(60,60,60)" stroke="rgb(60,60,60)" stroke-width="1" opacity="1" d="M 62.5 68 L 68 68.5 L 62.5 69 L 62.5 68 Z " /><path fill="rgb(60,60,60)" stroke="rgb(60,60,60)" stroke-width="1" opacity="1" d="M 42.5 69 L 46 69.5 L 42.5 70 L 42.5 69 Z " /><path fill="rgb(60,60,60)" stroke="rgb(60,60,60)" stroke-width="1" opacity="1" d="M 43.5 73 L 47 73.5 L 43.5 74 L 43.5 73 Z " /><path fill="rgb(60,60,60)" stroke="rgb(60,60,60)" stroke-width="1" opacity="1" d="M 81.5 73 L 85 73.5 L 81.5 74 L 81.5 73 Z " /><path fill="rgb(60,60,60)" stroke="rgb(60,60,60)" stroke-width="1" opacity="1" d="M 91.5 74 L 94 74.5 L 91.5 75 L 91.5 74 Z " /><path fill="rgb(60,60,60)" stroke="rgb(60,60,60)" stroke-width="1" opacity="1" d="M 29.5 78 L 33.5 83 L 29.5 78 Z " /><path fill="rgb(60,60,60)" stroke="rgb(60,60,60)" stroke-width="1" opacity="1" d="M 98.5 78 L 94.5 83 L 98.5 78 Z " /><path fill="rgb(60,60,60)" stroke="rgb(60,60,60)" stroke-width="1" opacity="1" d="M 48.5 81 L 57 81.5 L 48.5 82 L 48.5 81 Z " /><path fill="rgb(60,60,60)" stroke="rgb(60,60,60)" stroke-width="1" opacity="1" d="M 71.5 81 L 80 81.5 L 71.5 82 L 71.5 81 Z " /><path fill="rgb(60,60,60)" stroke="rgb(60,60,60)" stroke-width="1" opacity="1" d="M 36.5 82 L 39 82.5 L 36.5 83 L 36.5 82 Z " /><path fill="rgb(60,60,60)" stroke="rgb(60,60,60)" stroke-width="1" opacity="1" d="M 89.5 82 L 92 82.5 L 89.5 83 L 89.5 82 Z " /><path fill="rgb(60,60,60)" stroke="rgb(60,60,60)" stroke-width="1" opacity="1" d="M 46.5 85 L 53 85.5 L 46.5 86 L 46.5 85 Z " /><path fill="rgb(60,60,60)" stroke="rgb(60,60,60)" stroke-width="1" opacity="1" d="M 75.5 85 L 82 85.5 L 75.5 86 L 75.5 85 Z " /><path fill="rgb(60,60,60)" stroke="rgb(60,60,60)" stroke-width="1" opacity="1" d="M 36 86 L 38 86.5 L 36 87.5 L 36 86 Z " /><path fill="rgb(60,60,60)" stroke="rgb(60,60,60)" stroke-width="1" opacity="1" d="M 90.5 86 Q 92.8 85.3 92 87.5 L 90.5 86 Z " /><path fill="rgb(60,60,60)" stroke="rgb(60,60,60)" stroke-width="1" opacity="1" d="M 50.5 91 L 56 91.5 L 50.5 92 L 50.5 91 Z " /><path fill="rgb(60,60,60)" stroke="rgb(60,60,60)" stroke-width="1" opacity="1" d="M 72.5 91 L 78 91.5 L 72.5 92 L 72.5 91 Z " /><path fill="rgb(60,60,60)" stroke="rgb(60,60,60)" stroke-width="1" opacity="1" d="M 39.5 92 L 42 92.5 L 39.5 93 L 39.5 92 Z " /><path fill="rgb(60,60,60)" stroke="rgb(60,60,60)" stroke-width="1" opacity="1" d="M 86.5 92 L 89 92.5 L 86.5 93 L 86.5 92 Z " /><path fill="rgb(60,60,60)" stroke="rgb(60,60,60)" stroke-width="1" opacity="1" d="M 48.5 95 L 54 95.5 L 48.5 96 L 48.5 95 Z " /><path fill="rgb(60,60,60)" stroke="rgb(60,60,60)" stroke-width="1" opacity="1" d="M 74.5 95 L 80 95.5 L 74.5 96 L 74.5 95 Z " /><path fill="rgb(60,60,60)" stroke="rgb(60,60,60)" stroke-width="1" opacity="1" d="M 38.5 96 L 41 96.5 L 38.5 97 L 38.5 96 Z " /><path fill="rgb(60,60,60)" stroke="rgb(60,60,60)" stroke-width="1" opacity="1" d="M 87.5 96 L 90 96.5 L 87.5 97 L 87.5 96 Z " /><path fill="rgb(60,60,60)" stroke="rgb(60,60,60)" stroke-width="1" opacity="1" d="M 34.5 97 L 33.5 99 L 34.5 97 Z " /><path fill="rgb(60,60,60)" stroke="rgb(60,60,60)" stroke-width="1" opacity="1" d="M 93.5 97 L 94.5 99 L 93.5 97 Z " /><path fill="rgb(60,60,60)" stroke="rgb(60,60,60)" stroke-width="1" opacity="1" d="M 31.5 103 L 30.5 105 L 31.5 103 Z " /><path fill="rgb(60,60,60)" stroke="rgb(60,60,60)" stroke-width="1" opacity="1" d="M 96.5 103 L 97.5 105 L 96.5 103 Z " /><path fill="rgb(60,60,60)" stroke="rgb(60,60,60)" stroke-width="1" opacity="1" d="M 30.5 106 L 31.5 108 L 30.5 106 Z " /><path fill="rgb(60,60,60)" stroke="rgb(60,60,60)" stroke-width="1" opacity="1" d="M 97.5 106 L 96.5 108 L 97.5 106 Z " /><path fill="rgb(60,60,60)" stroke="rgb(60,60,60)" stroke-width="1" opacity="1" d="M 37.5 108 L 41 108.5 L 37.5 109 L 37.5 108 Z " /><path fill="rgb(60,60,60)" stroke="rgb(60,60,60)" stroke-width="1" opacity="1" d="M 87.5 108 L 91 108.5 L 87.5 109 L 87.5 108 Z " /><path fill="rgb(60,60,60)" stroke="rgb(60,60,60)" stroke-width="1" opacity="1" d="M 50.5 109 L 63 109.5 L 50.5 110 L 50.5 109 Z " /><path fill="rgb(60,60,60)" stroke="rgb(60,60,60)" stroke-width="1" opacity="1" d="M 65.5 109 L 78 109.5 L 65.5 110 L 65.5 109 Z " /><path fill="rgb(0,0,0)" stroke="rgb(0,0,0)" stroke-width="1" opacity="0.9686274509803922" d="M 61.5 15 Q 68 14 70 17.5 L 72 24.5 L 67 30.5 L 67 34.5 L 71 54.5 L 73.5 61 L 84 32.5 L 80 25.5 L 83.5 19 L 90.5 18 L 95 21.5 L 96 27.5 L 91.5 33 L 89 34.5 L 90 37.5 L 90.5 64 L 106 40.5 Q 102.4 38.6 103 32.5 L 107.5 27 L 111.5 26 L 118 30.5 L 119 35.5 L 114.5 41 L 111 42 L 105 69.5 L 105 74.5 L 103 79.5 L 96 87.5 L 95 92.5 Q 100.5 97.5 102 106.5 L 98.5 111 L 88.5 113 L 54.5 114 L 53.5 113 L 31.5 112 L 27 108.5 L 26 104.5 L 33 92.5 L 33 89.5 L 24 77.5 L 17 42 Q 12.3 41.6 10 37.5 L 9 33.5 L 13.5 27 L 17.5 26 L 24 30.5 L 25 35.5 L 22 40.5 L 37.5 64 L 38 37.5 L 39 34.5 L 33 29.5 L 32 23.5 L 35.5 19 L 42.5 18 L 46 20.5 L 48 25.5 L 44 34.5 L 54.5 61 L 57 54.5 L 61 30.5 Q 56.2 28.3 56 21.5 L 59.5 16 L 61.5 15 Z M 63 19 L 60 22 L 61 26 L 64 27 L 67 26 L 68 22 Q 67 18 63 19 Z M 37 22 L 36 28 Q 37 30 42 29 Q 44 29 44 25 Q 43 21 37 22 Z M 87 22 L 84 25 Q 83 29 87 29 Q 91 30 92 28 L 91 24 Q 92 20 87 22 Z M 17 30 L 14 31 L 13 36 Q 14 39 19 38 Q 22 37 21 33 L 17 30 Z M 111 30 L 107 33 Q 106 37 110 38 Q 114 39 115 36 L 114 31 L 111 30 Z M 63 40 L 58 65 L 58 69 L 70 69 L 65 44 Q 66 39 63 40 Z M 43 42 L 42 70 L 53 69 L 43 42 Z M 86 42 L 75 69 Q 83 68 86 70 L 86 42 Z M 24 49 L 23 54 L 28 72 L 37 70 L 24 49 Z M 105 49 L 91 70 Q 95 72 101 71 L 105 54 L 105 49 Z M 44 73 L 43 74 L 28 75 Q 29 80 34 83 Q 38 84 40 82 L 57 82 L 58 81 L 95 83 Q 99 80 100 75 L 86 74 L 85 73 L 44 73 Z M 47 85 L 46 86 L 36 86 L 37 93 L 43 92 L 56 92 L 57 91 L 72 91 L 73 92 L 86 92 L 91 93 L 92 86 L 83 86 L 82 85 L 47 85 Z M 49 95 L 48 96 L 35 97 L 30 107 L 32 108 L 50 109 L 51 110 L 78 110 L 79 109 L 97 108 L 98 107 L 95 99 L 90 96 L 81 96 L 80 95 L 49 95 Z " /><path fill="rgb(186,186,186)" stroke="rgb(186,186,186)" stroke-width="1" opacity="1" d="M 41.5 22 L 42.5 24 L 41.5 22 Z " /><path fill="rgb(186,186,186)" stroke="rgb(186,186,186)" stroke-width="1" opacity="1" d="M 86.5 22 L 85.5 24 L 86.5 22 Z " /><path fill="rgb(186,186,186)" stroke="rgb(186,186,186)" stroke-width="1" opacity="1" d="M 36.5 24 L 37 26.5 L 36 26.5 L 36.5 24 Z " /><path fill="rgb(186,186,186)" stroke="rgb(186,186,186)" stroke-width="1" opacity="1" d="M 91.5 24 L 92 26.5 L 91 26.5 L 91.5 24 Z " /><path fill="rgb(186,186,186)" stroke="rgb(186,186,186)" stroke-width="1" opacity="1" d="M 42.5 27 L 41.5 29 L 42.5 27 Z " /><path fill="rgb(186,186,186)" stroke="rgb(186,186,186)" stroke-width="1" opacity="1" d="M 85.5 27 L 86.5 29 L 85.5 27 Z " /><path fill="rgb(186,186,186)" stroke="rgb(186,186,186)" stroke-width="1" opacity="1" d="M 63 41 Q 66 40 65 43 Q 62 44 63 41 Z " /><path fill="rgb(186,186,186)" stroke="rgb(186,186,186)" stroke-width="1" opacity="1" d="M 42 44 L 44 44.5 L 43 45.5 L 42.5 62 L 42 44 Z " /><path fill="rgb(186,186,186)" stroke="rgb(186,186,186)" stroke-width="1" opacity="1" d="M 84.5 44 L 86 45.5 L 86 61.5 L 85 61.5 L 85 45.5 L 84.5 44 Z " /><path fill="rgb(186,186,186)" stroke="rgb(186,186,186)" stroke-width="1" opacity="1" d="M 23.5 50 Q 26.5 51.5 23.5 53 L 23.5 50 Z " /><path fill="rgb(186,186,186)" stroke="rgb(186,186,186)" stroke-width="1" opacity="1" d="M 104.5 50 L 105 52.5 L 103 51.5 L 104.5 50 Z " /><path fill="rgb(186,186,186)" stroke="rgb(186,186,186)" stroke-width="1" opacity="1" d="M 58.5 68 L 62 68.5 L 58.5 69 L 58.5 68 Z " /><path fill="rgb(186,186,186)" stroke="rgb(186,186,186)" stroke-width="1" opacity="1" d="M 75.5 68 L 78 68.5 L 75.5 69 L 75.5 68 Z " /><path fill="rgb(186,186,186)" stroke="rgb(186,186,186)" stroke-width="1" opacity="1" d="M 47.5 73 L 53 73.5 L 47.5 74 L 47.5 73 Z " /><path fill="rgb(186,186,186)" stroke="rgb(186,186,186)" stroke-width="1" opacity="1" d="M 75.5 73 L 81 73.5 L 75.5 74 L 75.5 73 Z " /><path fill="rgb(186,186,186)" stroke="rgb(186,186,186)" stroke-width="1" opacity="1" d="M 36.5 74 L 40 74.5 L 36.5 75 L 36.5 74 Z " /><path fill="rgb(186,186,186)" stroke="rgb(186,186,186)" stroke-width="1" opacity="1" d="M 88.5 74 L 91 74.5 L 88.5 75 L 88.5 74 Z " /><path fill="rgb(186,186,186)" stroke="rgb(186,186,186)" stroke-width="1" opacity="1" d="M 42.5 81 L 48 81.5 L 42.5 82 L 42.5 81 Z " /><path fill="rgb(186,186,186)" stroke="rgb(186,186,186)" stroke-width="1" opacity="1" d="M 80.5 81 L 86 81.5 L 80.5 82 L 80.5 81 Z " /><path fill="rgb(186,186,186)" stroke="rgb(186,186,186)" stroke-width="1" opacity="1" d="M 53.5 85 L 75 85.5 L 53.5 86 L 53.5 85 Z " /><path fill="rgb(186,186,186)" stroke="rgb(186,186,186)" stroke-width="1" opacity="1" d="M 38.5 86 L 42 86.5 L 38.5 87 L 38.5 86 Z " /><path fill="rgb(186,186,186)" stroke="rgb(186,186,186)" stroke-width="1" opacity="1" d="M 86.5 86 L 90 86.5 L 86.5 87 L 86.5 86 Z " /><path fill="rgb(186,186,186)" stroke="rgb(186,186,186)" stroke-width="1" opacity="1" d="M 45.5 91 L 50 91.5 L 45.5 92 L 45.5 91 Z " /><path fill="rgb(186,186,186)" stroke="rgb(186,186,186)" stroke-width="1" opacity="1" d="M 78.5 91 L 83 91.5 L 78.5 92 L 78.5 91 Z " /><path fill="rgb(186,186,186)" stroke="rgb(186,186,186)" stroke-width="1" opacity="1" d="M 54.5 95 L 74 95.5 L 54.5 96 L 54.5 95 Z " /><path fill="rgb(186,186,186)" stroke="rgb(186,186,186)" stroke-width="1" opacity="1" d="M 41.5 96 L 45 96.5 L 41.5 97 L 41.5 96 Z " /><path fill="rgb(186,186,186)" stroke="rgb(186,186,186)" stroke-width="1" opacity="1" d="M 83.5 96 L 87 96.5 L 83.5 97 L 83.5 96 Z " /><path fill="rgb(186,186,186)" stroke="rgb(186,186,186)" stroke-width="1" opacity="1" d="M 32.5 107 L 35 107.5 L 32.5 108 L 32.5 107 Z " /><path fill="rgb(186,186,186)" stroke="rgb(186,186,186)" stroke-width="1" opacity="1" d="M 93.5 107 L 96 107.5 L 93.5 108 L 93.5 107 Z " /><path fill="rgb(186,186,186)" stroke="rgb(186,186,186)" stroke-width="1" opacity="1" d="M 41.5 108 L 45 108.5 L 41.5 109 L 41.5 108 Z " /><path fill="rgb(186,186,186)" stroke="rgb(186,186,186)" stroke-width="1" opacity="1" d="M 83.5 108 L 87 108.5 L 83.5 109 L 83.5 108 Z " /><path fill="rgb(254,254,254)" stroke="rgb(254,254,254)" stroke-width="1" opacity="1" d="M 61.5 24 L 62.5 26 L 61.5 24 Z " /><path fill="rgb(254,254,254)" stroke="rgb(254,254,254)" stroke-width="1" opacity="1" d="M 66.5 24 L 65.5 26 L 66.5 24 Z " /><path fill="rgb(254,254,254)" stroke="rgb(254,254,254)" stroke-width="1" opacity="1" d="M 37.5 27 L 38.5 29 L 37.5 27 Z " /><path fill="rgb(254,254,254)" stroke="rgb(254,254,254)" stroke-width="1" opacity="1" d="M 90.5 27 L 89.5 29 L 90.5 27 Z " /><path fill="rgb(254,254,254)" stroke="rgb(254,254,254)" stroke-width="1" opacity="1" d="M 15.5 31 L 14.5 33 L 15.5 31 Z " /><path fill="rgb(254,254,254)" stroke="rgb(254,254,254)" stroke-width="1" opacity="1" d="M 18.5 31 L 19.5 33 L 18.5 31 Z " /><path fill="rgb(254,254,254)" stroke="rgb(254,254,254)" stroke-width="1" opacity="1" d="M 109.5 31 L 108.5 33 L 109.5 31 Z " /><path fill="rgb(254,254,254)" stroke="rgb(254,254,254)" stroke-width="1" opacity="1" d="M 112.5 31 L 113.5 33 L 112.5 31 Z " /><path fill="rgb(254,254,254)" stroke="rgb(254,254,254)" stroke-width="1" opacity="1" d="M 42.5 62 L 43 68.5 L 42 68.5 L 42.5 62 Z " /><path fill="rgb(254,254,254)" stroke="rgb(254,254,254)" stroke-width="1" opacity="1" d="M 85.5 62 L 86 68.5 L 85 68.5 L 85.5 62 Z " /><path fill="rgb(254,254,254)" stroke="rgb(254,254,254)" stroke-width="1" opacity="1" d="M 94.5 66 L 93.5 68 L 94.5 66 Z " /><path fill="rgb(254,254,254)" stroke="rgb(254,254,254)" stroke-width="1" opacity="1" d="M 53.5 73 L 57 73.5 L 53.5 74 L 53.5 73 Z " /><path fill="rgb(254,254,254)" stroke="rgb(254,254,254)" stroke-width="1" opacity="1" d="M 71.5 73 L 75 73.5 L 71.5 74 L 71.5 73 Z " /><path fill="rgb(254,254,254)" stroke="rgb(254,254,254)" stroke-width="1" opacity="1" d="M 29.5 77 L 33.5 82 L 29.5 77 Z " /><path fill="rgb(254,254,254)" stroke="rgb(254,254,254)" stroke-width="1" opacity="1" d="M 98.5 77 L 94.5 82 L 98.5 77 Z " /><path fill="rgb(254,254,254)" stroke="rgb(254,254,254)" stroke-width="1" opacity="1" d="M 34.5 98 L 33.5 100 L 34.5 98 Z " /><path fill="rgb(254,254,254)" stroke="rgb(254,254,254)" stroke-width="1" opacity="1" d="M 93.5 98 L 94.5 100 L 93.5 98 Z " /><path fill="rgb(255,255,255)" stroke="rgb(255,255,255)" stroke-width="1" opacity="1" d="M 62.5 20 Q 66.3 19.3 67 21.5 Q 67.5 25.5 64.5 26 L 61 23.5 L 62.5 20 Z " /><path fill="rgb(255,255,255)" stroke="rgb(255,255,255)" stroke-width="1" opacity="1" d="M 38.5 23 Q 42.3 22.3 43 24.5 L 41.5 28 L 39.5 29 Q 36.5 28.5 37 24.5 L 38.5 23 Z " /><path fill="rgb(255,255,255)" stroke="rgb(255,255,255)" stroke-width="1" opacity="1" d="M 86.5 23 Q 90.3 22.3 91 24.5 Q 91.5 28.5 88.5 29 L 85 26.5 L 86.5 23 Z " /><path fill="rgb(255,255,255)" stroke="rgb(255,255,255)" stroke-width="1" opacity="1" d="M 16.5 31 L 20 33.5 L 18.5 37 Q 14.1 38.5 15 35.5 L 14 33.5 L 16.5 31 Z " /><path fill="rgb(255,255,255)" stroke="rgb(255,255,255)" stroke-width="1" opacity="1" d="M 110.5 31 L 114 33.5 L 113 37 Q 109.2 38 108 35.5 Q 107.5 31.5 110.5 31 Z " /><path fill="rgb(255,255,255)" stroke="rgb(255,255,255)" stroke-width="1" opacity="1" d="M 63 44 Q 66.7 42.6 65 48.5 L 69 68 L 59 68 L 59 63.5 L 61 58.5 L 63 44 Z " /><path fill="rgb(255,255,255)" stroke="rgb(255,255,255)" stroke-width="1" opacity="1" d="M 43.5 46 L 52 67.5 L 50.5 69 L 43 69 L 43.5 46 Z " /><path fill="rgb(255,255,255)" stroke="rgb(255,255,255)" stroke-width="1" opacity="1" d="M 84.5 46 L 85 69 L 76 67.5 L 84.5 46 Z " /><path fill="rgb(255,255,255)" stroke="rgb(255,255,255)" stroke-width="1" opacity="1" d="M 24.5 53 L 35 70 L 28.5 71 L 27 69.5 L 24.5 53 Z " /><path fill="rgb(255,255,255)" stroke="rgb(255,255,255)" stroke-width="1" opacity="1" d="M 103.5 53 L 104 54.5 L 101 69.5 L 99.5 71 L 93 70 L 103.5 53 Z " /><path fill="rgb(255,255,255)" stroke="rgb(255,255,255)" stroke-width="1" opacity="1" d="M 57.5 73 L 85.5 74 L 99 76.5 L 93.5 82 L 87.5 82 L 86.5 81 L 41.5 81 Q 40 83.5 34.5 82 L 29.5 76 L 41.5 75 L 42.5 74 L 56.5 74 L 57.5 73 Z " /><path fill="rgb(255,255,255)" stroke="rgb(255,255,255)" stroke-width="1" opacity="1" d="M 44.5 86 L 83.5 86 L 91 87.5 L 90 92 L 84.5 91 L 43.5 91 L 38 92 L 37 87.5 L 44.5 86 Z " /><path fill="rgb(255,255,255)" stroke="rgb(255,255,255)" stroke-width="1" opacity="1" d="M 46.5 96 L 81.5 96 Q 83.3 98.7 89.5 97 L 95 100.5 L 97 105.5 L 95.5 107 L 81.5 108 L 80.5 109 L 47.5 109 L 46.5 108 L 32.5 107 L 31 105.5 L 35.5 98 L 46.5 96 Z " /></svg>