<?xml version="1.0" encoding="UTF-8"?>
<svg version="1.1" xmlns="http://www.w3.org/2000/svg" width="128" height="128">
<path d="M0 0 C1.32 0.66 2.64 1.32 4 2 C4 3.32 4 4.64 4 6 C5.98 6 7.96 6 10 6 C10.5625 7.9375 10.5625 7.9375 11 10 C10 11 10 11 6.9375 11.0625 C5.968125 11.041875 4.99875 11.02125 4 11 C4.03161858 14.32075016 4.03161858 14.32075016 5 18 C6.4706168 19.21485736 7.94754362 20.42679196 9.5 21.53515625 C12.34794355 24.31635112 13.06335471 28.22877029 14 32 C15.051875 31.505 16.10375 31.01 17.1875 30.5 C24.10014396 27.93384976 32.52922064 27.5033067 39.375 30.5 C44.05675201 33.28320714 48.93589965 37.78309547 50.67578125 43.04296875 C51.65265842 48.93954058 51.10536971 53.86843162 48 59 C45.41103967 62.52043812 42.77591809 65.91236474 39.01318359 68.21679688 C34.62253156 70.93845104 34.62253156 70.93845104 32.26098633 75.35473633 C31.99037748 78.05702768 31.94190945 80.66023476 32 83.375 C31.98839844 84.30183594 31.97679688 85.22867188 31.96484375 86.18359375 C31.94139631 88.45799528 31.95407588 90.72611799 32 93 C30.19451263 93.97148051 28.38014699 94.92646511 26.5625 95.875 C25.55316406 96.40867187 24.54382813 96.94234375 23.50390625 97.4921875 C15.69338964 100.85323478 8.12033361 101.36062783 -0.3125 101.3125 C-1.32779785 101.30758545 -2.3430957 101.3026709 -3.38916016 101.29760742 C-15.26370435 101.11191888 -22.4728425 98.84842084 -33 93 C-33 85.74 -33 78.48 -33 71 C-34.65 70.34 -36.3 69.68 -38 69 C-43.6558844 64.64931969 -48.25200763 58.92144979 -49.34375 51.73828125 C-49.66341011 43.89328929 -46.62261628 38.36361561 -41.6953125 32.48046875 C-36.91114932 28.30259353 -31.3434812 28.59261828 -25.30859375 28.66796875 C-20.64331167 29.13614936 -17.03627275 30.7001558 -13 33 C-12.01 33.495 -12.01 33.495 -11 34 C-11.0825 32.96875 -11.165 31.9375 -11.25 30.875 C-10.95619764 26.32106336 -9.86013104 24.49571572 -7 21 C-6.278125 20.525625 -5.55625 20.05125 -4.8125 19.5625 C-2.02750549 17.16164266 -2.26613881 14.52633929 -2 11 C-3.98 11 -5.96 11 -8 11 C-8.5625 9.0625 -8.5625 9.0625 -9 7 C-8 6 -8 6 -4.9375 5.9375 C-3.4834375 5.9684375 -3.4834375 5.9684375 -2 6 C-1.855625 5.195625 -1.71125 4.39125 -1.5625 3.5625 C-1 1 -1 1 0 0 Z " fill="#080808" transform="translate(63,14)"/>
<path d="M0 0 C0.825 0.78375 1.65 1.5675 2.5 2.375 C3.44875 3.261875 4.3975 4.14875 5.375 5.0625 C7.74017664 8.74939301 8.30985453 10.77910002 8.04296875 15.078125 C6.34502499 22.26079355 -0.65022485 28.28963072 -6.5 32.375 C-9.05651857 33.43677989 -10.13888663 33.48578224 -12.8046875 32.66796875 C-13.65289062 32.30316406 -14.50109375 31.93835938 -15.375 31.5625 C-21.93936404 28.99538064 -28.52684353 28.14866408 -35.5 27.375 C-36.04060741 20.83965713 -36.12825485 15.7327738 -32.19140625 10.29296875 C-23.6549394 0.61304907 -13.0085191 -6.03966958 0 0 Z " fill="#FCFCFC" transform="translate(101.5,49.625)"/>
<path d="M0 0 C7.24104118 2.8506032 13.76009532 8.2894779 18.09765625 14.75 C19.95135099 19.42453456 19.894506 23.41397707 19.53515625 28.375 C18.41238281 28.48457031 17.28960937 28.59414062 16.1328125 28.70703125 C6.54541822 29.58745298 6.54541822 29.58745298 -2.71484375 32.0625 C-6.61851341 33.42878438 -7.66890946 33.58226962 -11.46484375 32.375 C-16.6063015 28.79647708 -21.59466072 24.48426456 -23.46484375 18.375 C-24.13364813 13.63334842 -23.97281574 10.37213021 -21.77734375 6.0625 C-20.63265625 4.7321875 -20.63265625 4.7321875 -19.46484375 3.375 C-18.80484375 2.59125 -18.14484375 1.8075 -17.46484375 1 C-12.02773304 -1.94510164 -5.90444743 -1.49716575 0 0 Z " fill="#FCFCFC" transform="translate(42.46484375,48.625)"/>
<path d="M0 0 C0.556875 0.47050781 1.11375 0.94101563 1.6875 1.42578125 C-6.68719955 5.27814304 -14.35089679 5.65731573 -23.5 5.73828125 C-24.57314453 5.76728516 -25.64628906 5.79628906 -26.75195312 5.82617188 C-34.35933928 5.88600008 -40.3584594 4.49785086 -47.3125 1.42578125 C-46.3125 -0.57421875 -46.3125 -0.57421875 -44.29296875 -1.42578125 C-32.53562166 -4.68166198 -10.65230112 -7.25148201 0 0 Z " fill="#F4F4F4" transform="translate(85.3125,104.57421875)"/>
<path d="M0 0 C0 1.65 0 3.3 0 5 C-6.29447853 4.1607362 -6.29447853 4.1607362 -9.24609375 3.48828125 C-23.79270441 0.28848078 -41.03957104 0.57094429 -55 6 C-55 4.02 -55 2.04 -55 0 C-53.31593731 -0.65474408 -51.62753664 -1.29833406 -49.9375 -1.9375 C-48.99777344 -2.29714844 -48.05804688 -2.65679687 -47.08984375 -3.02734375 C-32.83328141 -7.51518702 -13.47653216 -6.73826608 0 0 Z " fill="#EEEEEE" transform="translate(90,86)"/>
<path d="M0 0 C10.94777381 -0.29602024 20.91085972 0.87257228 31.1171875 5.15625 C31.1171875 6.80625 31.1171875 8.45625 31.1171875 10.15625 C30.47652344 10.02347656 29.83585937 9.89070313 29.17578125 9.75390625 C28.31082031 9.57730469 27.44585937 9.40070313 26.5546875 9.21875 C25.70777344 9.04472656 24.86085937 8.87070313 23.98828125 8.69140625 C9.9466808 6.07412834 -4.11688768 6.21272343 -18.01171875 9.5 C-20.8828125 10.15625 -20.8828125 10.15625 -23.8828125 10.15625 C-23.8828125 8.50625 -23.8828125 6.85625 -23.8828125 5.15625 C-15.64189155 1.84447803 -8.81351398 0.35466857 0 0 Z " fill="#F0F0F0" transform="translate(58.8828125,90.84375)"/>
<path d="M0 0 C3.32957907 0.27746492 4.78804723 0.81096104 7.3125 3.0625 C9.45118631 6.78539839 9.66984175 9.85024867 9 14 C7.24541843 18.70966633 4.67875246 21.61952477 1 25 C0.17977251 23.92250558 -0.63086169 22.83770492 -1.4375 21.75 C-1.88996094 21.14671875 -2.34242187 20.5434375 -2.80859375 19.921875 C-5.36479299 15.79843229 -5.85400956 10.74247862 -5 6 C-3.55810732 3.61028976 -1.99606353 1.99606353 0 0 Z " fill="#F9F9F9" transform="translate(62,36)"/>
</svg>
