<svg width="128" height="128" version="1.1" xmlns="http://www.w3.org/2000/svg" desc="Created with imagetracer.js version 1.2.6" ><path fill="rgb(0,0,0)" stroke="rgb(0,0,0)" stroke-width="1" opacity="0" d="M 0 0 L 128 0 L 128 128 L 0 128 L 0 0 Z M 32 23 L 29 26 L 29 41 L 38 50 L 38 83 L 32 91 L 32 100 Q 25 98 23 103 L 23 111 L 24 112 L 25 113 L 104 113 Q 106 110 105 103 Q 103 98 96 100 L 96 91 L 90 83 L 90 50 L 99 41 L 99 26 L 97 23 L 86 23 Q 82 24 83 29 L 73 29 L 73 24 L 71 23 L 58 23 L 57 24 L 55 24 L 55 29 L 45 29 L 45 26 L 43 23 L 32 23 Z " /><path fill="rgb(190,190,190)" stroke="rgb(190,190,190)" stroke-width="1" opacity="1" d="M 33.5 28 L 34 37.5 L 33 37.5 L 33.5 28 Z " /><path fill="rgb(190,190,190)" stroke="rgb(190,190,190)" stroke-width="1" opacity="1" d="M 40.5 28 L 41 31.5 L 40 31.5 L 40.5 28 Z " /><path fill="rgb(190,190,190)" stroke="rgb(190,190,190)" stroke-width="1" opacity="1" d="M 87.5 28 L 88 31.5 L 87 31.5 L 87.5 28 Z " /><path fill="rgb(190,190,190)" stroke="rgb(190,190,190)" stroke-width="1" opacity="1" d="M 94.5 28 L 95 37.5 L 94 37.5 L 94.5 28 Z " /><path fill="rgb(190,190,190)" stroke="rgb(190,190,190)" stroke-width="1" opacity="1" d="M 42.5 33 L 58 33.5 L 42.5 34 L 42.5 33 Z " /><path fill="rgb(190,190,190)" stroke="rgb(190,190,190)" stroke-width="1" opacity="1" d="M 70.5 33 L 86 33.5 L 70.5 34 L 70.5 33 Z " /><path fill="rgb(190,190,190)" stroke="rgb(190,190,190)" stroke-width="1" opacity="1" d="M 42.5 49 L 86 49.5 L 42.5 50 L 42.5 49 Z " /><path fill="rgb(190,190,190)" stroke="rgb(190,190,190)" stroke-width="1" opacity="1" d="M 42.5 82 L 86 82.5 L 42.5 83 L 42.5 82 Z " /><path fill="rgb(190,190,190)" stroke="rgb(190,190,190)" stroke-width="1" opacity="1" d="M 41.5 85 L 40.5 87 L 41.5 85 Z " /><path fill="rgb(190,190,190)" stroke="rgb(190,190,190)" stroke-width="1" opacity="1" d="M 86.5 85 L 87.5 87 L 86.5 85 Z " /><path fill="rgb(190,190,190)" stroke="rgb(190,190,190)" stroke-width="1" opacity="1" d="M 36.5 93 L 37 99.5 L 36 99.5 L 36.5 93 Z " /><path fill="rgb(190,190,190)" stroke="rgb(190,190,190)" stroke-width="1" opacity="1" d="M 91.5 93 L 92 99.5 L 91 99.5 L 91.5 93 Z " /><path fill="rgb(190,190,190)" stroke="rgb(190,190,190)" stroke-width="1" opacity="1" d="M 28.5 108 L 100 108.5 L 28.5 109 L 28.5 108 Z " /><path fill="rgb(254,254,254)" stroke="rgb(254,254,254)" stroke-width="1" opacity="1" d="M 59.5 28 L 60 31.5 L 59 31.5 L 59.5 28 Z " /><path fill="rgb(254,254,254)" stroke="rgb(254,254,254)" stroke-width="1" opacity="1" d="M 68.5 28 L 69 31.5 L 68 31.5 L 68.5 28 Z " /><path fill="rgb(254,254,254)" stroke="rgb(254,254,254)" stroke-width="1" opacity="1" d="M 40.5 32 L 41.5 34 L 40.5 32 Z " /><path fill="rgb(254,254,254)" stroke="rgb(254,254,254)" stroke-width="1" opacity="1" d="M 87.5 32 L 86.5 34 L 87.5 32 Z " /><path fill="rgb(254,254,254)" stroke="rgb(254,254,254)" stroke-width="1" opacity="1" d="M 37.5 42 L 41.5 47 L 37.5 42 Z " /><path fill="rgb(254,254,254)" stroke="rgb(254,254,254)" stroke-width="1" opacity="1" d="M 90.5 42 L 86.5 47 L 90.5 42 Z " /><path fill="rgb(254,254,254)" stroke="rgb(254,254,254)" stroke-width="1" opacity="1" d="M 42.5 85 L 86 85.5 L 42.5 86 L 42.5 85 Z " /><path fill="rgb(254,254,254)" stroke="rgb(254,254,254)" stroke-width="1" opacity="1" d="M 40.5 87 L 39.5 89 L 40.5 87 Z " /><path fill="rgb(254,254,254)" stroke="rgb(254,254,254)" stroke-width="1" opacity="1" d="M 87.5 87 L 88.5 89 L 87.5 87 Z " /><path fill="rgb(255,255,255)" stroke="rgb(255,255,255)" stroke-width="1" opacity="1" d="M 34 28 L 40 28 L 40 32.5 L 41.5 34 L 59 34 L 60 28 L 68 28 L 68 31.5 L 69 34 L 86.5 34 L 88 32.5 L 88 28 L 94 28 L 94 37.5 L 93.5 38 L 34 38 L 34 28 Z " /><path fill="rgb(255,255,255)" stroke="rgb(255,255,255)" stroke-width="1" opacity="1" d="M 38.5 42 L 90 42.5 L 85.5 47 L 42.5 47 L 38.5 42 Z " /><path fill="rgb(255,255,255)" stroke="rgb(255,255,255)" stroke-width="1" opacity="1" d="M 42 50 L 86 50 L 86 82 L 42 82 L 42 50 Z " /><path fill="rgb(255,255,255)" stroke="rgb(255,255,255)" stroke-width="1" opacity="1" d="M 41 86 L 86.5 86 L 87 87.5 L 87.5 89 L 40 88.5 L 41 86 Z " /><path fill="rgb(255,255,255)" stroke="rgb(255,255,255)" stroke-width="1" opacity="1" d="M 37 93 L 90.5 93 L 91 93.5 L 91 100 L 37.5 100 L 37 99.5 L 37 93 Z " /><path fill="rgb(255,255,255)" stroke="rgb(255,255,255)" stroke-width="1" opacity="1" d="M 28 105 L 99.5 105 L 100 108 L 28.5 108 L 28 105 Z " /><path fill="rgb(67,67,67)" stroke="rgb(67,67,67)" stroke-width="1" opacity="1" d="M 33.5 27 L 40 27.5 L 33.5 28 L 33.5 27 Z " /><path fill="rgb(67,67,67)" stroke="rgb(67,67,67)" stroke-width="1" opacity="1" d="M 59.5 27 L 69 27.5 L 59.5 28 L 59.5 27 Z " /><path fill="rgb(67,67,67)" stroke="rgb(67,67,67)" stroke-width="1" opacity="1" d="M 88.5 27 L 95 27.5 L 88.5 28 L 88.5 27 Z " /><path fill="rgb(67,67,67)" stroke="rgb(67,67,67)" stroke-width="1" opacity="1" d="M 36.5 41 L 92 41.5 L 36.5 42 L 36.5 41 Z " /><path fill="rgb(67,67,67)" stroke="rgb(67,67,67)" stroke-width="1" opacity="1" d="M 42.5 47 L 86 47.5 L 42.5 48 L 42.5 47 Z " /><path fill="rgb(67,67,67)" stroke="rgb(67,67,67)" stroke-width="1" opacity="1" d="M 39.5 87 L 39.5 89 L 89 88.5 L 88.5 87 L 90 90 L 38.5 90 L 38 88.5 L 39.5 87 Z " /><path fill="rgb(67,67,67)" stroke="rgb(67,67,67)" stroke-width="1" opacity="1" d="M 36.5 92 L 92 92.5 L 36.5 93 L 36.5 92 Z " /><path fill="rgb(67,67,67)" stroke="rgb(67,67,67)" stroke-width="1" opacity="1" d="M 28.5 104 L 99.5 104 L 101 105.5 L 100.5 109 L 100 105 L 28.5 105 L 28 108.5 L 27 108.5 Q 26.3 104.8 28.5 104 Z " /><path fill="rgb(0,0,0)" stroke="rgb(0,0,0)" stroke-width="1" opacity="0.9764705882352941" d="M 31.5 23 L 43 23.5 L 31.5 24 L 31.5 23 Z " /><path fill="rgb(0,0,0)" stroke="rgb(0,0,0)" stroke-width="1" opacity="0.9764705882352941" d="M 57.5 23 L 71 23.5 L 57.5 24 L 57.5 23 Z " /><path fill="rgb(0,0,0)" stroke="rgb(0,0,0)" stroke-width="1" opacity="0.9764705882352941" d="M 85.5 23 L 97 23.5 L 85.5 24 L 85.5 23 Z " /><path fill="rgb(0,0,0)" stroke="rgb(0,0,0)" stroke-width="1" opacity="0.9764705882352941" d="M 29.5 25 L 30 40.5 L 38 48.5 L 29 40.5 L 29.5 25 Z " /><path fill="rgb(0,0,0)" stroke="rgb(0,0,0)" stroke-width="1" opacity="0.9764705882352941" d="M 44.5 25 L 45 29 L 55 29.5 L 44 30 L 44.5 25 Z " /><path fill="rgb(0,0,0)" stroke="rgb(0,0,0)" stroke-width="1" opacity="0.9764705882352941" d="M 83.5 25 L 84 30 L 73 29.5 L 83 29 L 83.5 25 Z " /><path fill="rgb(0,0,0)" stroke="rgb(0,0,0)" stroke-width="1" opacity="0.9764705882352941" d="M 98.5 25 L 99 40.5 L 90 48.5 L 98 40.5 L 98.5 25 Z " /><path fill="rgb(0,0,0)" stroke="rgb(0,0,0)" stroke-width="1" opacity="0.9764705882352941" d="M 36.5 85 L 33.5 89 L 36.5 85 Z " /><path fill="rgb(0,0,0)" stroke="rgb(0,0,0)" stroke-width="1" opacity="0.9764705882352941" d="M 91.5 85 L 94.5 89 L 91.5 85 Z " /><path fill="rgb(0,0,0)" stroke="rgb(0,0,0)" stroke-width="1" opacity="0.9764705882352941" d="M 25.5 100 L 32 100.5 L 25.5 101 L 25.5 100 Z " /><path fill="rgb(0,0,0)" stroke="rgb(0,0,0)" stroke-width="1" opacity="0.9764705882352941" d="M 96.5 100 L 103 100.5 L 96.5 101 L 96.5 100 Z " /><path fill="rgb(0,0,0)" stroke="rgb(0,0,0)" stroke-width="1" opacity="0.9764705882352941" d="M 23.5 102 L 24 110.5 L 23 110.5 L 23.5 102 Z " /><path fill="rgb(0,0,0)" stroke="rgb(0,0,0)" stroke-width="1" opacity="0.9764705882352941" d="M 104.5 102 L 105 110.5 L 104 110.5 L 104.5 102 Z " /><path fill="rgb(0,0,0)" stroke="rgb(0,0,0)" stroke-width="1" opacity="1" d="M 30 24 L 43.5 24 L 44 24.5 L 44 30 L 55 30 Q 53.8 25.4 56.5 24 L 71.5 24 L 73 25.5 L 73 30 L 84 30 L 84 24 L 98 24 L 98 40.5 L 90 48.5 L 90 83.5 L 96 91.5 L 96 101 L 104 101 L 104 111.5 L 102.5 113 L 25.5 113 L 24 111.5 L 24 101 L 32 101 L 32 91.5 L 38 83.5 L 38 48.5 L 30 40.5 L 30 24 Z M 33 27 L 33 38 L 34 38 L 95 38 L 95 27 L 89 27 Q 86 28 87 33 L 71 33 L 69 32 L 69 27 L 59 27 Q 60 32 58 33 L 42 33 Q 41 33 41 29 Q 39 25 33 27 Z M 37 41 L 43 48 L 86 48 L 92 42 L 37 41 Z M 42 49 L 42 83 L 86 83 L 86 49 L 42 49 Z M 42 85 L 38 90 L 90 90 L 90 89 L 87 85 L 42 85 Z M 36 92 L 36 100 L 37 100 L 92 100 L 92 93 L 92 92 L 36 92 Z M 29 104 Q 26 105 27 109 L 101 109 L 101 106 L 100 104 L 29 104 Z " /></svg>